<svg id="eW8wnh1BIiS1" xmlns="http://www.w3.org/2000/svg" xmlns:xlink="http://www.w3.org/1999/xlink" viewBox="0 0 713 600" shape-rendering="geometricPrecision" text-rendering="geometricPrecision"><g id="eW8wnh1BIiS2" transform="matrix(.999992 0.004051-.004051 0.999992-55.060458 66.566788)"><rect width="289" height="443" rx="29" ry="29" transform="matrix(.97247 0.233028-.233028 0.97247 431.231021-.000099)" fill="#eee"/><path d="M425.734,207.385c.275-.168.792-1.098,1.552-2.79.786-1.803,1.868-4.589,3.246-8.359.645-2.188,1.374-4.239,2.188-6.152.839-2.025,1.75-3.856,2.731-5.494.138-.084.479-.529,1.025-1.335s1.106-1.668,1.678-2.584c.711-1.001,1.339-1.904,1.885-2.71s.901-1.306,1.065-1.501c.218-.416.653-1.249,1.306-2.498.79-1.333,1.594-2.721,2.411-4.165s1.552-2.79,2.204-4.039c.791-1.333,1.281-2.152,1.472-2.458c1.279-2.387,3.072-4.474,5.378-6.262c2.333-1.898,4.542-3.768,6.627-5.609l3.254-2.556c6.201-5.302,12.864-9.847,19.99-13.637c7.236-3.763,14.716-6.588,22.437-8.476c7.722-1.888,15.631-2.852,23.727-2.891c8.123-.15,16.172.736,24.147,2.66c5.98,1.442,11.562,3.082,16.745,4.918s10.132,3.909,14.849,6.218c4.855,2.226,9.587,4.715,14.197,7.468s9.43,5.849,14.46,9.289l1.994.481c1.661.401,3.192.126,4.594-.825c1.428-1.062,2.648-2.233,3.66-3.513c1.26-1.336,2.673-2.578,4.238-3.724c1.677-1.119,3.789-1.372,6.336-.757c1.44.347,2.565,1.029,3.374,2.044.81,1.016,1.345,2.2,1.605,3.552.371,1.378.548,2.828.533,4.348.012,1.409-.129,2.723-.423,3.941-.164.195-.273.403-.326.625-.165.194-.287.458-.367.79-.053.222-.162.43-.326.625-.302.278-.63.668-.985,1.168-.08.333-.338.915-.773,1.748-.298.748-.554,1.566-.768,2.452-.595,1.497-1.191,2.994-1.786,4.491-.485,1.524-.945,2.702-1.38,3.535l-.842,3.489c-.526,6.553-1.355,13.151-2.488,19.792-1.134,6.642-2.461,13.119-3.984,19.432l-1.723,7.144c-.741.641-1.69,1.174-2.847,1.598-1.157.425-2.179.53-3.065.316-1.329-.321-2.427-1.113-3.294-2.377-.841-1.375-1.517-2.944-2.029-4.708-.401-1.738-.72-3.573-.957-5.505-.127-1.906-.224-3.688-.293-5.345-.15-1.325-.297-2.415-.442-3.271-.008-.939-.056-1.713-.144-2.32-.057-.248-.269-.827-.636-1.736-.256-.882-.609-1.846-1.06-2.892-.34-1.02-.652-1.915-.934-2.687-.256-.882-.358-1.434-.304-1.655-.252-.413-.648-1.446-1.186-3.099-.539-1.654-1.12-3.376-1.743-5.167-.596-1.902-1.163-3.68-1.702-5.333-.539-1.654-.81-2.715-.814-3.185-.558-.603-.879-.974-.963-1.111-.084-.138-.059-.483.075-1.037-1.696-1.229-2.993-2.656-3.891-4.279-3.934-4.582-7.908-8.998-11.923-13.248-3.904-4.223-8.588-7.638-14.054-10.246l-5.15-1.242c-.221-.053-.54-.189-.957-.407-.305-.19-.708-.463-1.208-.819-.222-.053-.443-.106-.665-.16-.084-.137-.348-.259-.791-.366-.305-.191-.79-.367-1.455-.527-.637-.271-1.594-.678-2.87-1.22-4.098-.988-8.068-1.536-11.91-1.642-3.815-.217-7.752-.171-11.812.139-.359.031-.773.048-1.243.052-.359.031-.718.061-1.077.092-.248.057-.483.059-.705.006-.828.034-1.353.025-1.575-.028-.111-.027-.388-.094-.831-.201-.496.115-.924.187-1.283.218-.248.057-1.159.189-2.732.396-.607.088-1.598.552-2.973,1.392-1.348.73-3.508,1.908-6.478,3.536-.688.42-1.499.869-2.435,1.346-.798.394-1.39.661-1.776.803-.687.42-1.43.827-2.228,1.22-.798.394-1.334.675-1.609.843s-.963.588-2.062,1.26c-.989.699-1.497,1.104-1.524,1.215-.302.279-.794.863-1.478,1.753-.683.89-1.435,1.822-2.256,2.796s-1.615,1.837-2.383,2.59c-.657.779-1.122,1.253-1.397,1.421s-.646.489-1.112.962c-.355.501-.821.974-1.397,1.421-.768.753-1.673,1.589-2.715,2.51-1.016.809-2.032,1.619-3.047,2.429-.905.837-1.728,1.576-2.469,2.217-.603.558-.918.892-.945,1.003-.137.084-.328.39-.573.917-.217.416-.462.943-.733,1.581-.244.527-.502,1.109-.773,1.747-.244.527-.38.846-.406.957-.275.168-.823.739-1.644,1.713-.71,1.001-1.558,2.085-2.543,3.254-.874,1.196-1.722,2.281-2.543,3.254-.71,1.001-1.105,1.668-1.185,2-.466.474-.835,1.029-1.106,1.667l-.653,1.249c-.461.943-1.168,2.414-2.118,4.411-.814,1.914-1.653,3.938-2.52,6.073-.84,2.024-1.584,3.896-2.233,5.614-.649,1.719-1.027,2.8-1.134,3.243l-6.051,25.086c.168.275.218,1.283.15,3.025.069,1.657-.084,3.261-.458,4.812.107-.443-.992,1.929-3.298,7.115.374,1.849.363,3.838-.034,5.969-.259,2.047-.476,4.163-.652,6.348-.179,1.714-.412,3.651-.698,5.808-.148,2.074-.213,4.285-.193,6.634.015,1.879.449,4.211,1.301,6.994.852,2.784,1.731,5.458,2.637,8.02.282.771.636,1.736,1.06,2.893.535,1.183,1.118,3.141,1.748,5.871.573,2.482,1.147,4.965,1.72,7.447.711,2.398,1.887,4.323,3.53,5.774.389.328.626.561.71.698.111.027.361.205.751.533.473.466,1.157,1.275,2.051,2.429c1.004,1.18,2.473,3.35,4.406,6.512c1.066,1.898,2.145,3.741,3.238,5.528c1.23,1.703,2.179,2.869,2.847,3.499.111.027.195.165.252.413.058.248.434.632,1.129,1.151-.027.111.21.344.711.699.5.355,1.098.792,1.793,1.311.722.409,1.514,1.01,2.377,1.804c1.196.875,2.378,1.805,3.547,2.79c1.306.901,2.557,1.788,3.752,2.663c1.196.874,2.239,1.653,3.129,2.337c1.027.599,1.818.965,2.371,1.099l10.301,2.485c.389.328.682.574.876.738.222.054.888.449,2,1.186l4.319,1.042c4.098.988,8.397,1.146,12.895.473c4.61-.646,9.16-1.775,13.651-3.388c4.517-1.723,8.812-3.734,12.882-6.034c4.208-2.384,7.891-4.777,11.049-7.18c2.005-1.508,3.5-2.847,4.485-4.016c1.096-1.142,2.219-2.395,3.368-3.759l3.488-4.256c.737-1.112,1.46-2.168,2.171-3.169.847-1.084,1.653-2.238,2.416-3.46c1.692-2.639,3.494-5.252,5.407-7.838c1.913-2.585,3.992-5.131,6.237-7.637.603-.557,2.012-.569,4.228-.035c1.882.454,3.063,1.149,3.54,2.085.478.935,1.043,2.478,1.697,4.628l-1.724,7.144c-1.255,5.205-2.83,10.275-4.723,15.21-.863,2.605-1.699,5.099-2.508,7.482-.698,2.41-1.435,5.221-2.21,8.433-.133.553-.412,1.951-.835,4.193-.397,2.131-.779,4.442-1.145,6.932-.34,2.379-.708,4.634-1.105,6.765-.259,2.047-.331,3.319-.217,3.816l-.48,1.993c-.187.775-.636,1.663-1.346,2.664-.6,1.028-1.365,2.015-2.297,2.962-.794.863-1.672,1.589-2.635,2.177-.935.478-1.791.623-2.566.436-1.551-.374-2.538-1.139-2.962-2.296-.313-1.131-.434-2.332-.361-3.604-.169-.275-.226-.523-.172-.744.053-.222.009-.525-.132-.911.08-.332-.037-1.064-.35-2.194-.203-1.104-.503-2.29-.9-3.557-.26-1.352-.56-2.538-.9-3.558-.313-1.13-.485-1.875-.516-2.234-.558-.603-1.28-1.012-2.166-1.225-2.215-.535-4.437-.309-6.667.677-2.093.901-4.088,1.885-5.986,2.951-1.264.867-2.515,1.679-3.752,2.435-1.1.673-2.077,1.081-2.933,1.227-.332-.081-.747-.063-1.243.051-.47.004-.995-.005-1.575-.028-.47.004-.816-.021-1.037-.074-.989.699-2.091,1.136-3.305,1.312-1.077.092-2.278.212-3.604.362-1.325.149-2.816.258-4.473.327-1.631-.042-3.399,0-5.305.127-2.929-.004-5.843.173-8.742.528-2.872.245-5.644.807-8.317,1.686-3.044-.5-6.13-1.069-9.258-1.706-3.154-.526-6.338-1.177-9.55-1.952-2.547-.614-5.178-1.366-7.894-2.255-2.631-.752-5.305-1.573-8.02-2.462-.195-.165-.598-.438-1.209-.819-.611-.382-1.278-.777-2-1.186-.695-.519-1.361-.914-1.999-1.185-.611-.382-1.069-.668-1.375-.859.222.053-.153-.096-1.123-.447-.832-.435-1.747-.773-2.744-1.013-1.027-.6-1.86-1.035-2.498-1.306s-1.096-.558-1.375-.859c-.863-.794-1.392-1.274-1.587-1.438-.084-.137-.181-.219-.292-.246-.947-.932-2.212-1.764-3.793-2.497-2.528-1.665-5.043-3.385-7.545-5.16-2.364-1.86-4.647-3.817-6.847-5.871-3.288-3.372-6.207-7.064-8.755-11.077-2.521-4.125-4.807-8.251-6.859-12.379-.225-.523-.76-1.707-1.604-3.551-.845-1.845-1.786-3.771-2.825-5.78-1.013-2.119-1.941-4.101-2.785-5.945-.845-1.845-1.393-2.973-1.645-3.386-.031-.359-.203-1.103-.516-2.234-.287-1.241-.657-2.62-1.112-4.136-.344-1.489-.701-2.923-1.072-4.302-.233-1.462-.449-2.51-.648-3.144-.114-.497-.244-1.173-.39-2.028-.118-.966-.168-1.975-.149-3.025-.149-1.325-.325-2.539-.528-3.643-.065-1.188-.086-2.072-.063-2.652-.069-1.658-.157-3.965-.265-6.92.003-2.93-.007-5.803-.03-8.622-.023-2.818-.016-5.278.022-7.378.064-2.211.11-3.372.137-3.483.499-3.044.971-6.212,1.413-9.504.58-3.376,1.297-6.836,2.152-10.381c1.283-5.316,3.004-10.995,5.165-17.037Z" fill="#f29200"/></g><g id="eW8wnh1BIiS5" transform="matrix(.996611 0.082255-.082255 0.996611-1.894862 47.452339)"><rect width="289" height="443" rx="29" ry="29" transform="translate(214 2)" fill="#f29200"/><path d="M256.986,204.623c.228-.228.513-1.253.855-3.076.342-1.937.74-4.899,1.196-8.887.114-2.278.342-4.443.684-6.494.341-2.165.797-4.159,1.367-5.981.114-.114.342-.627.683-1.539.342-.911.684-1.879,1.026-2.905.456-1.139.854-2.165,1.196-3.076s.57-1.481.684-1.709c.114-.456.342-1.367.683-2.734.456-1.481.912-3.02,1.368-4.615.455-1.595.854-3.076,1.196-4.443.456-1.481.74-2.393.854-2.734.684-2.621,1.937-5.07,3.76-7.349c1.823-2.393,3.532-4.728,5.127-7.007l2.564-3.247c4.785-6.608,10.196-12.589,16.235-17.944c6.152-5.355,12.76-9.855,19.824-13.501s14.526-6.437,22.388-8.3742c7.861-2.0508,15.893-3.0762,24.096-3.0762c6.153,0,11.963.2849,17.432.8545s10.767,1.4242,15.894,2.5635c5.241,1.0254,10.424,2.3354,15.551,3.9304s10.539,3.475,16.236,5.64h2.051c1.709,0,3.133-.627,4.272-1.88c1.139-1.367,2.051-2.791,2.734-4.272.912-1.595,1.994-3.1336,3.247-4.6147c1.368-1.4811,3.361-2.2217,5.982-2.2217c1.481,0,2.734.3988,3.76,1.1963c1.025.7976,1.823,1.8229,2.392,3.0761.684,1.253,1.197,2.621,1.538,4.102.342,1.367.513,2.677.513,3.93-.114.228-.171.456-.171.684-.114.228-.171.513-.171.854c0,.228-.057.456-.171.684-.228.342-.455.798-.683,1.367c0,.342-.114.969-.342,1.88-.114.798-.171,1.652-.171,2.564-.228,1.595-.456,3.19-.684,4.785-.113,1.595-.284,2.848-.512,3.759v3.589c1.025,6.494,1.766,13.103,2.221,19.825.456,6.722.684,13.33.684,19.824v7.348c-.57.798-1.367,1.539-2.393,2.222-1.025.684-1.993,1.025-2.905,1.025-1.367,0-2.62-.512-3.76-1.538-1.139-1.139-2.164-2.506-3.076-4.101-.797-1.595-1.538-3.304-2.221-5.127-.57-1.823-1.083-3.532-1.539-5.127-.455-1.253-.854-2.279-1.196-3.076-.228-.912-.456-1.652-.683-2.222-.114-.228-.456-.74-1.026-1.538-.456-.798-1.025-1.652-1.709-2.563-.569-.912-1.082-1.709-1.538-2.393-.456-.798-.683-1.31-.683-1.538-.342-.342-.969-1.253-1.88-2.735-.912-1.481-1.88-3.019-2.906-4.614-1.025-1.709-1.993-3.304-2.905-4.785-.911-1.481-1.424-2.449-1.538-2.905-.684-.456-1.082-.741-1.196-.855s-.171-.455-.171-1.025c-1.937-.798-3.532-1.88-4.785-3.247-4.899-3.532-9.799-6.893-14.698-10.083-4.785-3.19-10.14-5.412-16.064-6.665h-5.298c-.228,0-.57-.057-1.025-.171-.342-.114-.798-.285-1.367-.513-.228,0-.456,0-.684,0-.114-.114-.399-.171-.855-.171-.341-.114-.854-.171-1.538-.171-.683-.114-1.709-.284-3.076-.512-4.215,0-8.203.398-11.963,1.196-3.759.684-7.576,1.652-11.45,2.905-.342.114-.74.228-1.196.342-.342.114-.684.228-1.026.342-.227.114-.455.171-.683.171-.798.228-1.31.342-1.538.342-.114,0-.399,0-.855,0-.455.227-.854.398-1.196.512-.228.114-1.082.456-2.564,1.026-.569.228-1.424.911-2.563,2.05-1.139,1.026-2.962,2.678-5.469,4.956-.569.57-1.253,1.197-2.051,1.88-.683.57-1.196.969-1.538,1.197-.569.569-1.196,1.139-1.879,1.709-.684.569-1.14.968-1.368,1.196s-.797.797-1.709,1.709c-.797.911-1.196,1.424-1.196,1.538-.228.342-.57,1.025-1.025,2.051-.456,1.025-.969,2.108-1.538,3.247-.57,1.139-1.14,2.165-1.709,3.076-.456.911-.798,1.481-1.026,1.709s-.513.627-.854,1.196c-.228.57-.57,1.14-1.026,1.709-.569.912-1.253,1.937-2.05,3.076-.798,1.026-1.596,2.051-2.393,3.077-.684,1.025-1.31,1.936-1.88,2.734-.456.684-.684,1.082-.684,1.196-.113.114-.227.456-.341,1.026-.114.455-.228,1.025-.342,1.709-.114.569-.228,1.196-.342,1.88-.114.569-.171.911-.171,1.025-.228.228-.626.911-1.196,2.051-.456,1.139-1.026,2.392-1.709,3.759-.57,1.368-1.139,2.621-1.709,3.76-.456,1.14-.684,1.88-.684,2.222-.341.57-.569,1.196-.683,1.88l-.342,1.367c-.228,1.025-.57,2.62-1.025,4.785-.342,2.051-.684,4.216-1.026,6.494-.342,2.165-.626,4.159-.854,5.982s-.342,2.962-.342,3.418v25.805c.228.228.513,1.197.854,2.906.456,1.595.684,3.19.684,4.785c0-.456-.513,2.108-1.538,7.69.797,1.709,1.253,3.646,1.367,5.811.228,2.051.513,4.158.855,6.323.227,1.709.455,3.646.683,5.811.342,2.05.798,4.215,1.367,6.494.456,1.823,1.424,3.987,2.906,6.494c1.481,2.506,2.962,4.899,4.443,7.178.456.683,1.025,1.538,1.709,2.563.797,1.025,1.823,2.791,3.076,5.298c1.139,2.279,2.279,4.557,3.418,6.836c1.253,2.165,2.848,3.76,4.785,4.785.456.228.741.399.855.513.114,0,.398.114.854.341.57.342,1.424.969,2.564,1.88c1.253.912,3.19,2.678,5.81,5.298c1.481,1.595,2.962,3.133,4.444,4.614c1.595,1.368,2.791,2.279,3.588,2.735.114,0,.228.114.342.342s.57.512,1.367.854c0,.114.285.285.855.513s1.253.513,2.051.854c.797.228,1.709.627,2.734,1.197c1.367.569,2.734,1.196,4.102,1.88c1.481.569,2.905,1.139,4.272,1.708c1.367.57,2.564,1.083,3.589,1.539c1.139.341,1.994.512,2.563.512h10.596c.456.228.798.399,1.026.513.227,0,.968.228,2.221.684h4.444c4.215,0,8.431-.855,12.646-2.564c4.33-1.709,8.488-3.874,12.476-6.494c3.987-2.734,7.69-5.697,11.108-8.887c3.532-3.304,6.551-6.494,9.058-9.57c1.595-1.937,2.734-3.589,3.418-4.956.797-1.367,1.595-2.848,2.392-4.444l2.393-4.956c.456-1.253.911-2.449,1.367-3.588.57-1.254,1.082-2.564,1.538-3.931c1.025-2.962,2.165-5.925,3.418-8.887s2.677-5.924,4.273-8.887c.455-.683,1.822-1.025,4.101-1.025c1.937,0,3.247.399,3.931,1.196.683.798,1.595,2.165,2.734,4.102v7.349c0,5.354-.342,10.652-1.025,15.893-.228,2.734-.456,5.355-.684,7.861-.114,2.507-.171,5.412-.171,8.716c0,.57.057,1.994.171,4.273.114,2.164.285,4.5.513,7.007.228,2.392.399,4.671.513,6.836.227,2.05.455,3.304.683,3.759v2.051c0,.798-.228,1.766-.683,2.905-.342,1.14-.855,2.279-1.539,3.418-.569,1.026-1.253,1.937-2.05,2.735-.798.683-1.595,1.025-2.393,1.025-1.595,0-2.734-.513-3.418-1.538-.57-1.025-.968-2.165-1.196-3.418-.228-.228-.342-.456-.342-.684c0-.227-.114-.512-.342-.854c0-.342-.285-1.025-.854-2.051-.456-1.025-1.026-2.108-1.709-3.247-.57-1.253-1.14-2.336-1.709-3.247-.57-1.025-.912-1.709-1.026-2.051-.683-.456-1.481-.683-2.392-.683-2.279,0-4.387.74-6.323,2.221-1.823,1.367-3.532,2.792-5.127,4.273-1.026,1.139-2.051,2.221-3.077,3.247-.911.911-1.766,1.538-2.563,1.88-.342,0-.741.114-1.196.342-.456.113-.969.227-1.538.341-.456.114-.798.171-1.026.171-.797.912-1.766,1.595-2.905,2.051-1.025.342-2.165.741-3.418,1.196-1.253.456-2.677.912-4.273,1.367-1.595.342-3.304.798-5.126,1.368-2.849.683-5.64,1.538-8.374,2.563-2.735.912-5.298,2.108-7.691,3.589-3.076.228-6.209.399-9.399.513-3.19.228-6.438.341-9.742.341-2.62,0-5.354-.113-8.203-.341-2.734-.114-5.525-.285-8.374-.513-.228-.114-.683-.285-1.367-.513-.683-.228-1.424-.455-2.222-.683-.797-.342-1.538-.57-2.221-.684-.684-.228-1.197-.399-1.538-.513.228,0-.171-.057-1.197-.17-.911-.228-1.879-.342-2.905-.342-1.139-.342-2.051-.57-2.734-.684-.684-.114-1.197-.285-1.538-.513-1.026-.569-1.652-.911-1.88-1.025-.114-.114-.228-.171-.342-.171-1.139-.683-2.563-1.196-4.272-1.538-2.849-1.025-5.697-2.108-8.545-3.247-2.735-1.253-5.412-2.62-8.033-4.102-3.987-2.506-7.69-5.411-11.108-8.715-3.418-3.418-6.608-6.893-9.57-10.425-.342-.456-1.14-1.481-2.393-3.076s-2.62-3.247-4.101-4.956c-1.482-1.823-2.849-3.532-4.102-5.127s-2.051-2.564-2.393-2.906c-.114-.341-.455-1.025-1.025-2.05-.57-1.14-1.253-2.393-2.051-3.76-.683-1.367-1.367-2.678-2.051-3.931-.569-1.367-1.025-2.335-1.367-2.905-.228-.456-.512-1.082-.854-1.88-.342-.911-.627-1.88-.855-2.905-.455-1.254-.911-2.393-1.367-3.418-.342-1.14-.57-1.994-.684-2.564-.455-1.595-1.082-3.816-1.879-6.665-.684-2.848-1.368-5.639-2.051-8.374-.684-2.734-1.253-5.127-1.709-7.178-.456-2.164-.684-3.304-.684-3.418-.228-3.076-.512-6.266-.854-9.57-.228-3.418-.342-6.95-.342-10.596c0-5.468.342-11.393,1.025-17.773Z"/></g><g id="eW8wnh1BIiS8" transform="matrix(.999141 0.041445-.041445 0.999141 18.653637 51.889731)"><rect width="289" height="443" rx="29" ry="29" transform="matrix(.937603-.347707 0.347707 0.937603 2.722983 100.374297)" fill="#eee"/><path d="M104.155,280.189c.132-.294.032-1.354-.3-3.179-.372-1.931-1.057-4.84-2.054-8.728-.707-2.169-1.267-4.273-1.68-6.31-.4533-2.144-.7393-4.17-.8579-6.076.0657-.147.0956-.707.0895-1.681-.0061-.973-.0325-2-.0792-3.079.019-1.227.0254-2.328.0194-3.301-.0061-.973.0034-1.587.0285-1.84-.0563-.467-.1688-1.4-.3375-2.799-.103-1.546-.2263-3.145-.37-4.798s-.2999-3.178-.4686-4.578c-.103-1.546-.1623-2.499-.1779-2.859-.2968-2.692-.0005-5.427.8889-8.206.8488-2.886,1.6118-5.678,2.2878-8.376l1.236-3.948c2.111-7.881,5.031-15.4,8.76-22.558c3.836-7.198,8.402-13.76,13.699-19.688c5.297-5.927,11.271-11.198,17.924-15.813c6.611-4.722,13.748-8.547,21.411-11.475c5.747-2.197,11.276-4.005,16.588-5.425s10.566-2.513,15.761-3.278c5.262-.913,10.572-1.54,15.931-1.88c5.358-.34,11.085-.516,17.179-.527l1.915-.732c1.597-.61,2.703-1.704,3.32-3.282.576-1.683.92-3.339,1.029-4.967.282-1.815.744-3.638,1.386-5.469.749-1.872,2.347-3.275,4.795-4.21c1.383-.529,2.696-.604,3.939-.225c1.242.379,2.353,1.052,3.333,2.019c1.086.927,2.053,2.021,2.901,3.283.807,1.155,1.434,2.318,1.882,3.488-.025.254.003.487.084.7-.025.254.023.54.145.859.082.213.11.446.085.7-.091.4-.141.907-.151,1.521.122.319.24.945.352,1.878.178.786.43,1.604.756,2.456.356,1.571.713,3.142,1.069,4.713.463,1.531.751,2.763.863,3.696l1.281,3.352c3.276,5.7,6.327,11.609,9.152,17.725c2.825,6.117,5.397,12.208,7.715,18.274l2.623,6.865c-.247.948-.728,1.925-1.442,2.929-.713,1.005-1.496,1.67-2.347,1.995-1.278.488-2.631.457-4.062-.095-1.471-.657-2.916-1.568-4.337-2.733-1.315-1.205-2.616-2.537-3.906-3.996-1.182-1.499-2.271-2.913-3.266-4.24-.874-1.008-1.612-1.824-2.216-2.447-.538-.77-1.015-1.38-1.432-1.831-.187-.172-.69-.529-1.507-1.071-.71-.582-1.547-1.177-2.511-1.784-.857-.648-1.621-1.21-2.291-1.686-.71-.582-1.106-.98-1.187-1.193-.442-.197-1.352-.825-2.732-1.883-1.381-1.058-2.834-2.149-4.361-3.273-1.568-1.231-3.042-2.375-4.422-3.433-1.381-1.058-2.205-1.78-2.474-2.165-.801-.182-1.276-.305-1.423-.371s-.322-.365-.525-.897c-2.094-.054-3.971-.495-5.629-1.325-5.837-1.55-11.614-2.941-17.329-4.172-5.608-1.272-11.403-1.436-17.385-.492l-4.949,1.891c-.213.082-.552.15-1.019.207-.36.015-.846.018-1.46.009-.213.081-.425.162-.638.244-.147-.066-.434-.018-.859.145-.36.016-.86.145-1.498.389-.679.138-1.698.344-3.057.62-3.938,1.504-7.52,3.3-10.747,5.387-3.269,1.981-6.488,4.248-9.659,6.802-.279.228-.611.477-.996.746-.278.228-.557.457-.836.685-.172.188-.364.322-.577.404-.664.497-1.102.787-1.315.868-.106.041-.372.142-.798.305-.344.376-.656.678-.935.906-.172.188-.848.812-2.028,1.873-.451.416-1.005,1.36-1.663,2.831-.698,1.364-1.811,3.558-3.339,6.581-.329.736-.744,1.565-1.245,2.488-.435.777-.771,1.332-1.009,1.667-.329.735-.711,1.491-1.146,2.267-.436.777-.719,1.312-.85,1.606-.132.294-.461,1.03-.987,2.206-.419,1.136-.609,1.758-.568,1.864-.091.401-.166,1.161-.226,2.282-.06,1.12-.152,2.314-.278,3.582-.125,1.268-.291,2.429-.498,3.484-.1,1.014-.216,1.668-.348,1.962-.131.294-.255.768-.371,1.422-.01.614-.125,1.268-.348,1.963-.207,1.055-.479,2.257-.817,3.605-.379,1.243-.758,2.486-1.137,3.728-.273,1.202-.533,2.277-.78,3.225-.182.802-.252,1.255-.212,1.362-.066.147-.05.507.047,1.08.056.466.153,1.039.291,1.718.097.573.214,1.199.351,1.878.097.573.166.913.207,1.019-.132.294-.26,1.075-.386,2.343-.019,1.227-.103,2.601-.254,4.122-.044,1.48-.129,2.854-.254,4.122-.019,1.227.032,2,.154,2.319-.116.654-.105,1.321.033,2l.169,1.399c.153,1.04.403,2.652.75,4.836.413,2.038.866,4.182,1.36,6.433.454,2.144.899,4.108,1.337,5.892s.738,2.889.901,3.315l9.211,24.105c.295.132.906.935,1.836,2.409.995,1.328,1.777,2.736,2.346,4.226-.162-.426.274,2.152,1.309,7.733c1.355,1.312,2.472,2.958,3.351,4.94.945,1.834,1.963,3.701,3.055,5.601.823,1.515,1.728,3.243,2.713,5.184c1.051,1.794,2.25,3.653,3.595,5.578c1.077,1.54,2.754,3.217,5.032,5.03c2.279,1.812,4.516,3.518,6.713,5.118.67.476,1.507,1.071,2.512,1.785c1.111.673,2.699,1.957,4.764,3.851c1.878,1.721,3.756,3.443,5.633,5.165c1.944,1.575,4.003,2.495,6.178,2.762.507.05.834.108.982.174.106-.041.413-.036.92.014.654.116,1.676.396,3.065.841c1.496.404,3.936,1.362,7.319,2.875c1.953.961,3.886,1.869,5.798,2.724c1.978.708,3.421,1.132,4.328,1.273.107-.041.254.025.442.197s.715.276,1.582.31c.041.107.368.165.981.174.614.01,1.354.032,2.221.067.826-.072,1.82-.025,2.981.141c1.481.044,2.981.141,4.502.292c1.587.003,3.121.027,4.601.071c1.481.044,2.781.096,3.902.156c1.186-.088,2.045-.233,2.578-.436l9.897-3.783c.507.051.888.088,1.141.113.213-.081.986-.132,2.319-.154l4.151-1.586c3.938-1.505,7.571-3.808,10.898-6.909c3.434-3.142,6.546-6.648,9.336-10.52c2.749-3.977,5.15-8.066,7.204-12.266c2.12-4.347,3.802-8.405,5.045-12.173.798-2.379,1.273-4.329,1.424-5.85.256-1.562.473-3.23.648-5.005l.466-5.483c-.021-1.334-.023-2.614-.004-3.841.085-1.374.096-2.781.034-4.22-.1-3.134-.093-6.307.02-9.522.114-3.214.387-6.49.819-9.826.182-.801,1.337-1.609,3.466-2.422c1.809-.691,3.175-.787,4.098-.286.924.501,2.263,1.453,4.019,2.856l2.623,6.864c1.911,5.002,3.483,10.073,4.715,15.213.764,2.635,1.486,5.164,2.168,7.587.788,2.382,1.772,5.116,2.952,8.203.203.532.764,1.842,1.684,3.93.879,1.981,1.873,4.102,2.98,6.362c1.067,2.154,2.04,4.221,2.919,6.202.945,1.835,1.606,2.924,1.981,3.269l.732,1.915c.285.745.418,1.731.399,2.958.087,1.186.015,2.434-.217,3.742-.166,1.161-.479,2.257-.94,3.286-.501.923-1.124,1.527-1.869,1.812-1.49.569-2.737.497-3.741-.217-.899-.754-1.678-1.676-2.338-2.765-.294-.132-.482-.304-.563-.517-.082-.213-.29-.438-.625-.676-.122-.319-.632-.856-1.53-1.611-.792-.795-1.71-1.603-2.755-2.423-.98-.967-1.898-1.775-2.756-2.423-.898-.754-1.461-1.271-1.69-1.55-.801-.181-1.627-.109-2.479.216-2.128.813-3.833,2.257-5.113,4.332-1.215,1.928-2.303,3.869-3.264,5.821-.551,1.431-1.123,2.808-1.715,4.132-.526,1.176-1.1,2.067-1.723,2.671-.32.122-.651.371-.996.746-.385.269-.823.559-1.314.868-.386.269-.684.445-.897.526-.42,1.136-1.081,2.12-1.982,2.953-.836.685-1.758,1.464-2.766,2.337s-2.176,1.807-3.503,2.803c-1.368.888-2.802,1.924-4.301,3.107-2.417,1.655-4.719,3.45-6.907,5.384-2.229,1.827-4.197,3.86-5.903,6.097-2.792,1.311-5.658,2.589-8.597,3.834-2.899,1.352-5.891,2.617-8.978,3.797-2.447.935-5.042,1.805-7.784,2.609-2.595.869-5.264,1.706-8.006,2.51-.253-.025-.74-.022-1.46.009s-1.493.083-2.319.155c-.867-.035-1.64.017-2.319.154-.72.031-1.26.055-1.62.07.213-.081-.18.008-1.179.268-.932.112-1.878.351-2.836.717-1.186.088-2.119.2-2.798.338s-1.219.161-1.62.07c-1.161-.166-1.868-.262-2.122-.287-.147-.065-.274-.078-.38-.037-1.308-.232-2.822-.203-4.54.088-3.027.059-6.074.065-9.141.017-3.002-.195-5.991-.516-8.967-.964-4.62-.918-9.116-2.31-13.488-4.176-4.413-1.973-8.633-4.08-12.661-6.322-.482-.304-1.593-.977-3.333-2.02-1.74-1.042-3.607-2.097-5.6-3.165-2.035-1.174-3.922-2.283-5.662-3.325-1.74-1.043-2.831-1.663-3.272-1.86-.228-.279-.792-.795-1.69-1.55-.939-.861-2.025-1.787-3.258-2.78-1.126-1.033-2.232-2.013-3.318-2.939-1.021-1.074-1.792-1.816-2.315-2.226-.375-.345-.865-.828-1.469-1.451-.644-.73-1.256-1.533-1.835-2.409-.873-1.008-1.706-1.91-2.497-2.705-.726-.942-1.244-1.659-1.554-2.15-.995-1.328-2.373-3.179-4.135-5.555-1.655-2.417-3.29-4.78-4.905-7.091-1.615-2.31-3.001-4.341-4.159-6.094-1.198-1.86-1.818-2.843-1.858-2.949-1.311-2.792-2.716-5.671-4.215-8.635-1.433-3.111-2.8-6.37-4.101-9.776-1.952-5.108-3.748-10.764-5.387-16.968Z" fill="#f29200"/></g>
<script><![CDATA[
!function(t,n){"object"==typeof exports&&"undefined"!=typeof module?module.exports=n():"function"==typeof __SVGATOR_DEFINE__&&__SVGATOR_DEFINE__.amd?__SVGATOR_DEFINE__(n):((t="undefined"!=typeof globalThis?globalThis:t||self).__SVGATOR_PLAYER__=t.__SVGATOR_PLAYER__||{},t.__SVGATOR_PLAYER__["5c7f360c"]=n())}(this,(function(){"use strict";function t(t,n){var e=Object.keys(t);if(Object.getOwnPropertySymbols){var r=Object.getOwnPropertySymbols(t);n&&(r=r.filter((function(n){return Object.getOwnPropertyDescriptor(t,n).enumerable}))),e.push.apply(e,r)}return e}function n(n){for(var e=1;e<arguments.length;e++){var r=null!=arguments[e]?arguments[e]:{};e%2?t(Object(r),!0).forEach((function(t){o(n,t,r[t])})):Object.getOwnPropertyDescriptors?Object.defineProperties(n,Object.getOwnPropertyDescriptors(r)):t(Object(r)).forEach((function(t){Object.defineProperty(n,t,Object.getOwnPropertyDescriptor(r,t))}))}return n}function e(t){return(e="function"==typeof Symbol&&"symbol"==typeof Symbol.iterator?function(t){return typeof t}:function(t){return t&&"function"==typeof Symbol&&t.constructor===Symbol&&t!==Symbol.prototype?"symbol":typeof t})(t)}function r(t,n){if(!(t instanceof n))throw new TypeError("Cannot call a class as a function")}function i(t,n){for(var e=0;e<n.length;e++){var r=n[e];r.enumerable=r.enumerable||!1,r.configurable=!0,"value"in r&&(r.writable=!0),Object.defineProperty(t,r.key,r)}}function u(t,n,e){return n&&i(t.prototype,n),e&&i(t,e),t}function o(t,n,e){return n in t?Object.defineProperty(t,n,{value:e,enumerable:!0,configurable:!0,writable:!0}):t[n]=e,t}function a(t){return(a=Object.setPrototypeOf?Object.getPrototypeOf:function(t){return t.__proto__||Object.getPrototypeOf(t)})(t)}function l(t,n){return(l=Object.setPrototypeOf||function(t,n){return t.__proto__=n,t})(t,n)}function s(){if("undefined"==typeof Reflect||!Reflect.construct)return!1;if(Reflect.construct.sham)return!1;if("function"==typeof Proxy)return!0;try{return Boolean.prototype.valueOf.call(Reflect.construct(Boolean,[],(function(){}))),!0}catch(t){return!1}}function f(t,n,e){return(f=s()?Reflect.construct:function(t,n,e){var r=[null];r.push.apply(r,n);var i=new(Function.bind.apply(t,r));return e&&l(i,e.prototype),i}).apply(null,arguments)}function c(t,n){if(n&&("object"==typeof n||"function"==typeof n))return n;if(void 0!==n)throw new TypeError("Derived constructors may only return object or undefined");return function(t){if(void 0===t)throw new ReferenceError("this hasn't been initialised - super() hasn't been called");return t}(t)}function h(t,n,e){return(h="undefined"!=typeof Reflect&&Reflect.get?Reflect.get:function(t,n,e){var r=function(t,n){for(;!Object.prototype.hasOwnProperty.call(t,n)&&null!==(t=a(t)););return t}(t,n);if(r){var i=Object.getOwnPropertyDescriptor(r,n);return i.get?i.get.call(e):i.value}})(t,n,e||t)}function v(t){return function(t){if(Array.isArray(t))return y(t)}(t)||function(t){if("undefined"!=typeof Symbol&&null!=t[Symbol.iterator]||null!=t["@@iterator"])return Array.from(t)}(t)||function(t,n){if(!t)return;if("string"==typeof t)return y(t,n);var e=Object.prototype.toString.call(t).slice(8,-1);"Object"===e&&t.constructor&&(e=t.constructor.name);if("Map"===e||"Set"===e)return Array.from(t);if("Arguments"===e||/^(?:Ui|I)nt(?:8|16|32)(?:Clamped)?Array$/.test(e))return y(t,n)}(t)||function(){throw new TypeError("Invalid attempt to spread non-iterable instance.\nIn order to be iterable, non-array objects must have a [Symbol.iterator]() method.")}()}function y(t,n){(null==n||n>t.length)&&(n=t.length);for(var e=0,r=new Array(n);e<n;e++)r[e]=t[e];return r}Number.isInteger||(Number.isInteger=function(t){return"number"==typeof t&&isFinite(t)&&Math.floor(t)===t}),Number.EPSILON||(Number.EPSILON=2220446049250313e-31);var g=d(Math.pow(10,-6));function d(t){var n=arguments.length>1&&void 0!==arguments[1]?arguments[1]:6;if(Number.isInteger(t))return t;var e=Math.pow(10,n);return Math.round((+t+Number.EPSILON)*e)/e}function p(t,n){var e=arguments.length>2&&void 0!==arguments[2]?arguments[2]:g;return Math.abs(t-n)<e}var m=Math.PI/180;function b(t){return t}function w(t,n,e){var r=1-e;return 3*e*r*(t*r+n*e)+e*e*e}function A(){var t=arguments.length>0&&void 0!==arguments[0]?arguments[0]:0,n=arguments.length>1&&void 0!==arguments[1]?arguments[1]:0,e=arguments.length>2&&void 0!==arguments[2]?arguments[2]:1,r=arguments.length>3&&void 0!==arguments[3]?arguments[3]:1;return t<0||t>1||e<0||e>1?null:p(t,n)&&p(e,r)?b:function(i){if(i<=0)return t>0?i*n/t:0===n&&e>0?i*r/e:0;if(i>=1)return e<1?1+(i-1)*(r-1)/(e-1):1===e&&t<1?1+(i-1)*(n-1)/(t-1):1;for(var u,o=0,a=1;o<a;){var l=w(t,e,u=(o+a)/2);if(p(i,l))break;l<i?o=u:a=u}return w(n,r,u)}}function _(){return 1}function x(t){return 1===t?1:0}function k(){var t=arguments.length>0&&void 0!==arguments[0]?arguments[0]:1,n=arguments.length>1&&void 0!==arguments[1]?arguments[1]:0;if(1===t){if(0===n)return x;if(1===n)return _}var e=1/t;return function(t){return t>=1?1:(t+=n*e)-t%e}}var S=Math.sin,O=Math.cos,j=Math.acos,E=Math.asin,M=Math.tan,P=Math.atan2,I=Math.PI/180,R=180/Math.PI,F=Math.sqrt,N=function(){function t(){var n=arguments.length>0&&void 0!==arguments[0]?arguments[0]:1,e=arguments.length>1&&void 0!==arguments[1]?arguments[1]:0,i=arguments.length>2&&void 0!==arguments[2]?arguments[2]:0,u=arguments.length>3&&void 0!==arguments[3]?arguments[3]:1,o=arguments.length>4&&void 0!==arguments[4]?arguments[4]:0,a=arguments.length>5&&void 0!==arguments[5]?arguments[5]:0;r(this,t),this.m=[n,e,i,u,o,a],this.i=null,this.w=null,this.s=null}return u(t,[{key:"determinant",get:function(){var t=this.m;return t[0]*t[3]-t[1]*t[2]}},{key:"isIdentity",get:function(){if(null===this.i){var t=this.m;this.i=1===t[0]&&0===t[1]&&0===t[2]&&1===t[3]&&0===t[4]&&0===t[5]}return this.i}},{key:"point",value:function(t,n){var e=this.m;return{x:e[0]*t+e[2]*n+e[4],y:e[1]*t+e[3]*n+e[5]}}},{key:"translateSelf",value:function(){var t=arguments.length>0&&void 0!==arguments[0]?arguments[0]:0,n=arguments.length>1&&void 0!==arguments[1]?arguments[1]:0;if(!t&&!n)return this;var e=this.m;return e[4]+=e[0]*t+e[2]*n,e[5]+=e[1]*t+e[3]*n,this.w=this.s=this.i=null,this}},{key:"rotateSelf",value:function(){var t=arguments.length>0&&void 0!==arguments[0]?arguments[0]:0;if(t%=360){var n=S(t*=I),e=O(t),r=this.m,i=r[0],u=r[1];r[0]=i*e+r[2]*n,r[1]=u*e+r[3]*n,r[2]=r[2]*e-i*n,r[3]=r[3]*e-u*n,this.w=this.s=this.i=null}return this}},{key:"scaleSelf",value:function(){var t=arguments.length>0&&void 0!==arguments[0]?arguments[0]:1,n=arguments.length>1&&void 0!==arguments[1]?arguments[1]:1;if(1!==t||1!==n){var e=this.m;e[0]*=t,e[1]*=t,e[2]*=n,e[3]*=n,this.w=this.s=this.i=null}return this}},{key:"skewSelf",value:function(t,n){if(n%=360,(t%=360)||n){var e=this.m,r=e[0],i=e[1],u=e[2],o=e[3];t&&(t=M(t*I),e[2]+=r*t,e[3]+=i*t),n&&(n=M(n*I),e[0]+=u*n,e[1]+=o*n),this.w=this.s=this.i=null}return this}},{key:"resetSelf",value:function(){var t=arguments.length>0&&void 0!==arguments[0]?arguments[0]:1,n=arguments.length>1&&void 0!==arguments[1]?arguments[1]:0,e=arguments.length>2&&void 0!==arguments[2]?arguments[2]:0,r=arguments.length>3&&void 0!==arguments[3]?arguments[3]:1,i=arguments.length>4&&void 0!==arguments[4]?arguments[4]:0,u=arguments.length>5&&void 0!==arguments[5]?arguments[5]:0,o=this.m;return o[0]=t,o[1]=n,o[2]=e,o[3]=r,o[4]=i,o[5]=u,this.w=this.s=this.i=null,this}},{key:"recomposeSelf",value:function(){var t=arguments.length>0&&void 0!==arguments[0]?arguments[0]:null,n=arguments.length>1&&void 0!==arguments[1]?arguments[1]:null,e=arguments.length>2&&void 0!==arguments[2]?arguments[2]:null,r=arguments.length>3&&void 0!==arguments[3]?arguments[3]:null,i=arguments.length>4&&void 0!==arguments[4]?arguments[4]:null;return this.isIdentity||this.resetSelf(),t&&(t.x||t.y)&&this.translateSelf(t.x,t.y),n&&this.rotateSelf(n),e&&(e.x&&this.skewSelf(e.x,0),e.y&&this.skewSelf(0,e.y)),!r||1===r.x&&1===r.y||this.scaleSelf(r.x,r.y),i&&(i.x||i.y)&&this.translateSelf(i.x,i.y),this}},{key:"decompose",value:function(){var t=arguments.length>0&&void 0!==arguments[0]?arguments[0]:0,n=arguments.length>1&&void 0!==arguments[1]?arguments[1]:0,e=this.m,r=e[0]*e[0]+e[1]*e[1],i=[[e[0],e[1]],[e[2],e[3]]],u=F(r);if(0===u)return{origin:{x:d(e[4]),y:d(e[5])},translate:{x:d(t),y:d(n)},scale:{x:0,y:0},skew:{x:0,y:0},rotate:0};i[0][0]/=u,i[0][1]/=u;var o=e[0]*e[3]-e[1]*e[2]<0;o&&(u=-u);var a=i[0][0]*i[1][0]+i[0][1]*i[1][1];i[1][0]-=i[0][0]*a,i[1][1]-=i[0][1]*a;var l=F(i[1][0]*i[1][0]+i[1][1]*i[1][1]);if(0===l)return{origin:{x:d(e[4]),y:d(e[5])},translate:{x:d(t),y:d(n)},scale:{x:d(u),y:0},skew:{x:0,y:0},rotate:0};i[1][0]/=l,i[1][1]/=l,a/=l;var s=0;return i[1][1]<0?(s=j(i[1][1])*R,i[0][1]<0&&(s=360-s)):s=E(i[0][1])*R,o&&(s=-s),a=P(a,F(i[0][0]*i[0][0]+i[0][1]*i[0][1]))*R,o&&(a=-a),{origin:{x:d(e[4]),y:d(e[5])},translate:{x:d(t),y:d(n)},scale:{x:d(u),y:d(l)},skew:{x:d(a),y:0},rotate:d(s)}}},{key:"clone",value:function(){var t=this.m;return new this.constructor(t[0],t[1],t[2],t[3],t[4],t[5])}},{key:"toString",value:function(){var t=arguments.length>0&&void 0!==arguments[0]?arguments[0]:" ";if(null===this.s){var n=this.m.map((function(t){return d(t)}));1===n[0]&&0===n[1]&&0===n[2]&&1===n[3]?this.s="translate("+n[4]+t+n[5]+")":this.s="matrix("+n.join(t)+")"}return this.s}}],[{key:"create",value:function(t){return t?Array.isArray(t)?f(this,v(t)):t instanceof this?t.clone():(new this).recomposeSelf(t.origin,t.rotate,t.skew,t.scale,t.translate):new this}}]),t}();function T(t,n,e){return t>=.5?e:n}function B(t,n,e){return 0===t||n===e?n:t*(e-n)+n}function q(t,n,e){var r=B(t,n,e);return r<=0?0:r}function D(t,n,e){var r=B(t,n,e);return r<=0?0:r>=1?1:r}function L(t,n,e){return 0===t?n:1===t?e:{x:B(t,n.x,e.x),y:B(t,n.y,e.y)}}function C(t,n,e){var r=function(t,n,e){return Math.round(B(t,n,e))}(t,n,e);return r<=0?0:r>=255?255:r}function V(t,n,e){return 0===t?n:1===t?e:{r:C(t,n.r,e.r),g:C(t,n.g,e.g),b:C(t,n.b,e.b),a:B(t,null==n.a?1:n.a,null==e.a?1:e.a)}}function G(t,n){for(var e=[],r=0;r<t;r++)e.push(n);return e}function z(t,n){if(--n<=0)return t;var e=(t=Object.assign([],t)).length;do{for(var r=0;r<e;r++)t.push(t[r])}while(--n>0);return t}var Y,$=function(){function t(n){r(this,t),this.list=n,this.length=n.length}return u(t,[{key:"setAttribute",value:function(t,n){for(var e=this.list,r=0;r<this.length;r++)e[r].setAttribute(t,n)}},{key:"removeAttribute",value:function(t){for(var n=this.list,e=0;e<this.length;e++)n[e].removeAttribute(t)}},{key:"style",value:function(t,n){for(var e=this.list,r=0;r<this.length;r++)e[r].style[t]=n}}]),t}(),U=/-./g,Q=function(t,n){return n.toUpperCase()};function H(t){return"function"==typeof t?t:T}function J(t){return t?"function"==typeof t?t:Array.isArray(t)?function(t){var n=arguments.length>1&&void 0!==arguments[1]?arguments[1]:b;if(!Array.isArray(t))return n;switch(t.length){case 1:return k(t[0])||n;case 2:return k(t[0],t[1])||n;case 4:return A(t[0],t[1],t[2],t[3])||n}return n}(t,null):function(t,n){var e=arguments.length>2&&void 0!==arguments[2]?arguments[2]:b;switch(t){case"linear":return b;case"steps":return k(n.steps||1,n.jump||0)||e;case"bezier":case"cubic-bezier":return A(n.x1||0,n.y1||0,n.x2||0,n.y2||0)||e}return e}(t.type,t.value,null):null}function Z(t,n,e){var r=arguments.length>3&&void 0!==arguments[3]&&arguments[3],i=n.length-1;if(t<=n[0].t)return r?[0,0,n[0].v]:n[0].v;if(t>=n[i].t)return r?[i,1,n[i].v]:n[i].v;var u,o=n[0],a=null;for(u=1;u<=i;u++){if(!(t>n[u].t)){a=n[u];break}o=n[u]}return null==a?r?[i,1,n[i].v]:n[i].v:o.t===a.t?r?[u,1,a.v]:a.v:(t=(t-o.t)/(a.t-o.t),o.e&&(t=o.e(t)),r?[u,t,e(t,o.v,a.v)]:e(t,o.v,a.v))}function K(t,n){var e=arguments.length>2&&void 0!==arguments[2]?arguments[2]:null;return t&&t.length?"function"!=typeof n?null:("function"!=typeof e&&(e=null),function(r){var i=Z(r,t,n);return null!=i&&e&&(i=e(i)),i}):null}function W(t,n){return t.t-n.t}function X(t,n,r,i,u){var o,a="@"===r[0],l="#"===r[0],s=Y[r],f=T;switch(a?(o=r.substr(1),r=o.replace(U,Q)):l&&(r=r.substr(1)),e(s)){case"function":if(f=s(i,u,Z,J,r,a,n,t),l)return f;break;case"string":f=K(i,H(s));break;case"object":if((f=K(i,H(s.i),s.f))&&"function"==typeof s.u)return s.u(n,f,r,a,t)}return f?function(t,n,e){if(arguments.length>3&&void 0!==arguments[3]&&arguments[3])return t instanceof $?function(r){return t.style(n,e(r))}:function(r){return t.style[n]=e(r)};if(Array.isArray(n)){var r=n.length;return function(i){var u=e(i);if(null==u)for(var o=0;o<r;o++)t[o].removeAttribute(n);else for(var a=0;a<r;a++)t[a].setAttribute(n,u)}}return function(r){var i=e(r);null==i?t.removeAttribute(n):t.setAttribute(n,i)}}(n,r,f,a):null}function tt(t,n,r,i){if(!i||"object"!==e(i))return null;var u=null,o=null;return Array.isArray(i)?o=function(t){if(!t||!t.length)return null;for(var n=0;n<t.length;n++)t[n].e&&(t[n].e=J(t[n].e));return t.sort(W)}(i):(o=i.keys,u=i.data||null),o?X(t,n,r,o,u):null}function nt(t,n,e){if(!e)return null;var r=[];for(var i in e)if(e.hasOwnProperty(i)){var u=tt(t,n,i,e[i]);u&&r.push(u)}return r.length?r:null}function et(t,n){if(!n.settings.duration||n.settings.duration<0)return null;var e,r,i,u,o,a=function(t,n){if(!n)return null;var e=[];if(Array.isArray(n))for(var r=n.length,i=0;i<r;i++){var u=n[i];if(2===u.length){var o=null;if("string"==typeof u[0])o=t.getElementById(u[0]);else if(Array.isArray(u[0])){o=[];for(var a=0;a<u[0].length;a++)if("string"==typeof u[0][a]){var l=t.getElementById(u[0][a]);l&&o.push(l)}o=o.length?1===o.length?o[0]:new $(o):null}if(o){var s=nt(t,o,u[1]);s&&(e=e.concat(s))}}}else for(var f in n)if(n.hasOwnProperty(f)){var c=t.getElementById(f);if(c){var h=nt(t,c,n[f]);h&&(e=e.concat(h))}}return e.length?e:null}(t,n.elements);return a?(e=a,r=n.settings,i=r.duration,u=e.length,o=null,function(t,n){var a=r.iterations||1/0,l=(r.alternate&&a%2==0)^r.direction>0?i:0,s=t%i,f=1+(t-s)/i;n*=r.direction,r.alternate&&f%2==0&&(n=-n);var c=!1;if(f>a)s=l,c=!0,-1===r.fill&&(s=r.direction>0?0:i);else if(n<0&&(s=i-s),s===o)return!1;o=s;for(var h=0;h<u;h++)e[h](s);return c}):null}function rt(t,n){if(Y=n,!t||!t.root||!Array.isArray(t.animations))return null;var e=function(t){for(var n=document.getElementsByTagName("svg"),e=0;e<n.length;e++)if(n[e].id===t.root&&!n[e].svgatorAnimation)return n[e].svgatorAnimation=!0,n[e];return null}(t);if(!e)return null;var r=t.animations.map((function(t){return et(e,t)})).filter((function(t){return!!t}));return r.length?{svg:e,animations:r,animationSettings:t.animationSettings,options:t.options||void 0}:null}function it(t){var n=arguments.length>1&&void 0!==arguments[1]?arguments[1]:null,e=arguments.length>2&&void 0!==arguments[2]?arguments[2]:Number,r=arguments.length>3&&void 0!==arguments[3]?arguments[3]:"undefined"!=typeof BigInt&&BigInt,i="0x"+(t.replace(/[^0-9a-fA-F]+/g,"")||27);return n&&r&&e.isSafeInteger&&!e.isSafeInteger(+i)?e(r(i))%n+n:+i}function ut(t,n,e){return!t||!e||n>t.length?t:t.substring(0,n)+ut(t.substring(n+1),e,e)}function ot(t){var n=arguments.length>1&&void 0!==arguments[1]?arguments[1]:27;return!t||t%n?t%n:[0,1].includes(n)?n:ot(t/n,n)}function at(t,n,e){if(t&&t.length){var r=it(e),i=ot(r)+5,u=ut(t,ot(r,5),i);return u=u.replace(/\x7c$/g,"==").replace(/\x2f$/g,"="),u=function(t,n,e){var r=+("0x"+t.substring(0,4));t=t.substring(4);for(var i=it(n,r)%r+e%27,u=[],o=0;o<t.length;o+=2)if("|"!==t[o]){var a=+("0x"+t[o]+t[o+1])-i;u.push(a)}else{var l=+("0x"+t.substring(o+1,o+1+4))-i;o+=3,u.push(l)}return String.fromCharCode.apply(String,u)}(u=(u=atob(u)).replace(/[\x41-\x5A]/g,""),n,r),u=JSON.parse(u)}}var lt=[{key:"alternate",def:!1},{key:"fill",def:1},{key:"iterations",def:0},{key:"direction",def:1},{key:"speed",def:1},{key:"fps",def:100}],st=function(){function t(n,e){var i=this,u=arguments.length>2&&void 0!==arguments[2]?arguments[2]:null;r(this,t),this._id=0,this._running=!1,this._rollingBack=!1,this._animations=n,this._settings=e,(!u||u<"2022-05-02")&&delete this._settings.speed,lt.forEach((function(t){i._settings[t.key]=i._settings[t.key]||t.def})),this.duration=e.duration,this.offset=e.offset||0,this.rollbackStartOffset=0}return u(t,[{key:"alternate",get:function(){return this._settings.alternate}},{key:"fill",get:function(){return this._settings.fill}},{key:"iterations",get:function(){return this._settings.iterations}},{key:"direction",get:function(){return this._settings.direction}},{key:"speed",get:function(){return this._settings.speed}},{key:"fps",get:function(){return this._settings.fps}},{key:"maxFiniteDuration",get:function(){return this.iterations>0?this.iterations*this.duration:this.duration}},{key:"_apply",value:function(t){for(var n=arguments.length>1&&void 0!==arguments[1]?arguments[1]:{},e=this._animations,r=e.length,i=0,u=0;u<r;u++)n[u]?i++:(n[u]=e[u](t,1),n[u]&&i++);return i}},{key:"_rollback",value:function(t){var n=this,e=1/0,r=null;this.rollbackStartOffset=t,this._rollingBack=!0,this._running=!0;this._id=window.requestAnimationFrame((function i(u){if(n._rollingBack){null==r&&(r=u);var o=Math.round(t-(u-r)*n.speed);if(o>n.duration&&e!==1/0){var a=!!n.alternate&&o/n.duration%2>1,l=o%n.duration;o=(l+=a?n.duration:0)||n.duration}var s=(n.fps?1e3/n.fps:0)*n.speed,f=Math.max(0,o);f<=e-s&&(n.offset=f,e=f,n._apply(f));var c=n.iterations>0&&-1===n.fill&&o>=n.maxFiniteDuration;(o<=0||n.offset<o||c)&&n.stop(),n._id=window.requestAnimationFrame(i)}}))}},{key:"_start",value:function(){var t=this,n=arguments.length>0&&void 0!==arguments[0]?arguments[0]:0,e=-1/0,r=null,i={};this._running=!0;var u=function u(o){null==r&&(r=o);var a=Math.round((o-r)*t.speed+n),l=(t.fps?1e3/t.fps:0)*t.speed;if(a>=e+l&&!t._rollingBack&&(t.offset=a,e=a,t._apply(a,i)===t._animations.length))return void t.pause(!0);t._id=window.requestAnimationFrame(u)};this._id=window.requestAnimationFrame(u)}},{key:"_pause",value:function(){this._id&&window.cancelAnimationFrame(this._id),this._running=!1}},{key:"play",value:function(){if(!this._running)return this._rollingBack?this._rollback(this.offset):this._start(this.offset)}},{key:"stop",value:function(){this._pause(),this.offset=0,this.rollbackStartOffset=0,this._rollingBack=!1,this._apply(0)}},{key:"reachedToEnd",value:function(){return this.iterations>0&&this.offset>=this.iterations*this.duration}},{key:"restart",value:function(){var t=arguments.length>0&&void 0!==arguments[0]&&arguments[0];this.stop(t),this.play(t)}},{key:"pause",value:function(){this._pause()}},{key:"reverse",value:function(){this.direction=-this.direction}}],[{key:"build",value:function(t,n){delete t.animationSettings,t.options=at(t.options,t.root,"5c7f360c"),t.animations.map((function(n){n.settings=at(n.s,t.root,"5c7f360c"),delete n.s,t.animationSettings||(t.animationSettings=n.settings)}));var e=t.version;if(!(t=rt(t,n)))return null;var r=t.options||{},i=new this(t.animations,t.animationSettings,e);return{el:t.svg,options:r,player:i}}},{key:"push",value:function(t){return this.build(t)}},{key:"init",value:function(){var t=this,n=window.__SVGATOR_PLAYER__&&window.__SVGATOR_PLAYER__["5c7f360c"];Array.isArray(n)&&n.splice(0).forEach((function(n){return t.build(n)}))}}]),t}();function ft(t){return d(t)+""}function ct(t){var n=arguments.length>1&&void 0!==arguments[1]?arguments[1]:" ";return t&&t.length?t.map(ft).join(n):""}function ht(t){if(!t)return"transparent";if(null==t.a||t.a>=1){var n=function(t){return 1===(t=parseInt(t).toString(16)).length?"0"+t:t},e=function(t){return t.charAt(0)===t.charAt(1)},r=n(t.r),i=n(t.g),u=n(t.b);return e(r)&&e(i)&&e(u)&&(r=r.charAt(0),i=i.charAt(0),u=u.charAt(0)),"#"+r+i+u}return"rgba("+t.r+","+t.g+","+t.b+","+t.a+")"}function vt(t){return t?"url(#"+t+")":"none"}!function(){for(var t=0,n=["ms","moz","webkit","o"],e=0;e<n.length&&!window.requestAnimationFrame;++e)window.requestAnimationFrame=window[n[e]+"RequestAnimationFrame"],window.cancelAnimationFrame=window[n[e]+"CancelAnimationFrame"]||window[n[e]+"CancelRequestAnimationFrame"];window.requestAnimationFrame||(window.requestAnimationFrame=function(n){var e=Date.now(),r=Math.max(0,16-(e-t)),i=window.setTimeout((function(){n(e+r)}),r);return t=e+r,i},window.cancelAnimationFrame=window.clearTimeout)}();var yt={f:null,i:function(t,n,e){return 0===t?n:1===t?e:{x:q(t,n.x,e.x),y:q(t,n.y,e.y)}},u:function(t,n){return function(e){var r=n(e);t.setAttribute("rx",ft(r.x)),t.setAttribute("ry",ft(r.y))}}},gt={f:null,i:function(t,n,e){return 0===t?n:1===t?e:{width:q(t,n.width,e.width),height:q(t,n.height,e.height)}},u:function(t,n){return function(e){var r=n(e);t.setAttribute("width",ft(r.width)),t.setAttribute("height",ft(r.height))}}};Object.freeze({M:2,L:2,Z:0,H:1,V:1,C:6,Q:4,T:2,S:4,A:7});var dt={},pt=null;function mt(t){var n=function(){if(pt)return pt;if("object"!==("undefined"==typeof document?"undefined":e(document))||!document.createElementNS)return{};var t=document.createElementNS("http://www.w3.org/2000/svg","svg");return t&&t.style?(t.style.position="absolute",t.style.opacity="0.01",t.style.zIndex="-9999",t.style.left="-9999px",t.style.width="1px",t.style.height="1px",pt={svg:t}):{}}().svg;if(!n)return function(t){return null};var r=document.createElementNS(n.namespaceURI,"path");r.setAttributeNS(null,"d",t),r.setAttributeNS(null,"fill","none"),r.setAttributeNS(null,"stroke","none"),n.appendChild(r);var i=r.getTotalLength();return function(t){var n=r.getPointAtLength(i*t);return{x:n.x,y:n.y}}}function bt(t){return dt[t]?dt[t]:dt[t]=mt(t)}function wt(t,n,e,r){if(!t||!r)return!1;var i=["M",t.x,t.y];if(n&&e&&(i.push("C"),i.push(n.x),i.push(n.y),i.push(e.x),i.push(e.y)),n?!e:e){var u=n||e;i.push("Q"),i.push(u.x),i.push(u.y)}return n||e||i.push("L"),i.push(r.x),i.push(r.y),i.join(" ")}function At(t,n,e,r){var i=arguments.length>4&&void 0!==arguments[4]?arguments[4]:1,u=wt(t,n,e,r),o=bt(u);try{return o(i)}catch(t){return null}}function _t(t,n,e){return t+(n-t)*e}function xt(t,n,e){var r=arguments.length>3&&void 0!==arguments[3]&&arguments[3],i={x:_t(t.x,n.x,e),y:_t(t.y,n.y,e)};return r&&(i.a=kt(t,n)),i}function kt(t,n){return Math.atan2(n.y-t.y,n.x-t.x)}function St(t,n,e,r){var i=1-r;return i*i*t+2*i*r*n+r*r*e}function Ot(t,n,e,r){return 2*(1-r)*(n-t)+2*r*(e-n)}function jt(t,n,e,r){var i=arguments.length>4&&void 0!==arguments[4]&&arguments[4],u=At(t,n,null,e,r);return u||(u={x:St(t.x,n.x,e.x,r),y:St(t.y,n.y,e.y,r)}),i&&(u.a=Et(t,n,e,r)),u}function Et(t,n,e,r){return Math.atan2(Ot(t.y,n.y,e.y,r),Ot(t.x,n.x,e.x,r))}function Mt(t,n,e,r,i){var u=i*i;return i*u*(r-t+3*(n-e))+3*u*(t+e-2*n)+3*i*(n-t)+t}function Pt(t,n,e,r,i){var u=1-i;return 3*(u*u*(n-t)+2*u*i*(e-n)+i*i*(r-e))}function It(t,n,e,r,i){var u=arguments.length>5&&void 0!==arguments[5]&&arguments[5],o=At(t,n,e,r,i);return o||(o={x:Mt(t.x,n.x,e.x,r.x,i),y:Mt(t.y,n.y,e.y,r.y,i)}),u&&(o.a=Rt(t,n,e,r,i)),o}function Rt(t,n,e,r,i){return Math.atan2(Pt(t.y,n.y,e.y,r.y,i),Pt(t.x,n.x,e.x,r.x,i))}function Ft(t,n,e){var r=arguments.length>3&&void 0!==arguments[3]&&arguments[3];if(Tt(n)){if(Bt(e))return jt(n,e.start,e,t,r)}else if(Tt(e)){if(qt(n))return jt(n,n.end,e,t,r)}else{if(qt(n))return Bt(e)?It(n,n.end,e.start,e,t,r):jt(n,n.end,e,t,r);if(Bt(e))return jt(n,e.start,e,t,r)}return xt(n,e,t,r)}function Nt(t,n,e){var r=Ft(t,n,e,!0);return r.a=function(t){return arguments.length>1&&void 0!==arguments[1]&&arguments[1]?t+Math.PI:t}(r.a)/m,r}function Tt(t){return!t.type||"corner"===t.type}function Bt(t){return null!=t.start&&!Tt(t)}function qt(t){return null!=t.end&&!Tt(t)}var Dt=new N;var Lt={f:ft,i:B},Ct={f:ft,i:D};function Vt(t,n,e){return t.map((function(t){return function(t,n,e){var r=t.v;if(!r||"g"!==r.t||r.s||!r.v||!r.r)return t;var i=e.getElementById(r.r),u=i&&i.querySelectorAll("stop")||[];return r.s=r.v.map((function(t,n){var e=u[n]&&u[n].getAttribute("offset");return{c:t,o:e=d(parseInt(e)/100)}})),delete r.v,t}(t,0,e)}))}var Gt={gt:"gradientTransform",c:{x:"cx",y:"cy"},rd:"r",f:{x:"x1",y:"y1"},to:{x:"x2",y:"y2"}};function zt(t,n,r,i,u,o,a,l){return Vt(t,0,l),n=function(t,n,e){for(var r,i,u,o=t.length-1,a={},l=0;l<=o;l++)(r=t[l]).e&&(r.e=n(r.e)),r.v&&"g"===(i=r.v).t&&i.r&&(u=e.getElementById(i.r))&&(a[i.r]={e:u,s:u.querySelectorAll("stop")});return a}(t,i,l),function(i){var u=r(i,t,Yt);if(!u)return"none";if("c"===u.t)return ht(u.v);if("g"===u.t){if(!n[u.r])return vt(u.r);var o=n[u.r];return function(t,n){for(var e=t.s,r=e.length;r<n.length;r++){var i=e[e.length-1].cloneNode();i.id=Qt(i.id),t.e.appendChild(i),e=t.s=t.e.querySelectorAll("stop")}for(var u=0,o=e.length,a=n.length-1;u<o;u++)e[u].setAttribute("stop-color",ht(n[Math.min(u,a)].c)),e[u].setAttribute("offset",n[Math.min(u,a)].o)}(o,u.s),Object.keys(Gt).forEach((function(t){if(void 0!==u[t])if("object"!==e(Gt[t])){var n,r="gt"===t?(n=u[t],Array.isArray(n)?"matrix("+n.join(" ")+")":""):u[t],i=Gt[t];o.e.setAttribute(i,r)}else Object.keys(Gt[t]).forEach((function(n){if(void 0!==u[t][n]){var e=u[t][n],r=Gt[t][n];o.e.setAttribute(r,e)}}))})),vt(u.r)}return"none"}}function Yt(t,e,r){if(0===t)return e;if(1===t)return r;if(e&&r){var i=e.t;if(i===r.t)switch(e.t){case"c":return{t:i,v:V(t,e.v,r.v)};case"g":if(e.r===r.r){var u={t:i,s:$t(t,e.s,r.s),r:e.r};return e.gt&&r.gt&&(u.gt=function(t,n,e){var r=n.length;if(r!==e.length)return T(t,n,e);for(var i=new Array(r),u=0;u<r;u++)i[u]=B(t,n[u],e[u]);return i}(t,e.gt,r.gt)),e.c?(u.c=L(t,e.c,r.c),u.rd=q(t,e.rd,r.rd)):e.f&&(u.f=L(t,e.f,r.f),u.to=L(t,e.to,r.to)),u}}if("c"===e.t&&"g"===r.t||"c"===r.t&&"g"===e.t){var o="c"===e.t?e:r,a="g"===e.t?n({},e):n({},r),l=a.s.map((function(t){return{c:o.v,o:t.o}}));return a.s="c"===e.t?$t(t,l,a.s):$t(t,a.s,l),a}}return T(t,e,r)}function $t(t,n,e){if(n.length===e.length)return n.map((function(n,r){return Ut(t,n,e[r])}));for(var r=Math.max(n.length,e.length),i=[],u=0;u<r;u++){var o=Ut(t,n[Math.min(u,n.length-1)],e[Math.min(u,e.length-1)]);i.push(o)}return i}function Ut(t,n,e){return{o:D(t,n.o,e.o||0),c:V(t,n.c,e.c||{})}}function Qt(t){return t.replace(/-fill-([0-9]+)$/,(function(t,n){return"-fill-"+(+n+1)}))}var Ht={fill:zt,"fill-opacity":Ct,stroke:zt,"stroke-opacity":Ct,"stroke-width":Lt,"stroke-dashoffset":{f:ft,i:B},"stroke-dasharray":{f:function(t){var n=arguments.length>1&&void 0!==arguments[1]?arguments[1]:" ";return t&&t.length>0&&(t=t.map((function(t){return d(t,4)}))),ct(t,n)},i:function(t,n,e){var r,i,u,o=n.length,a=e.length;if(o!==a)if(0===o)n=G(o=a,0);else if(0===a)a=o,e=G(o,0);else{var l=(u=(r=o)*(i=a)/function(t,n){for(var e;n;)e=n,n=t%n,t=e;return t||1}(r,i))<0?-u:u;n=z(n,Math.floor(l/o)),e=z(e,Math.floor(l/a)),o=a=l}for(var s=[],f=0;f<o;f++)s.push(d(q(t,n[f],e[f])));return s}},opacity:Ct,transform:function(t,n,r,i){if(!(t=function(t,n){if(!t||"object"!==e(t))return null;var r=!1;for(var i in t)t.hasOwnProperty(i)&&(t[i]&&t[i].length?(t[i].forEach((function(t){t.e&&(t.e=n(t.e))})),r=!0):delete t[i]);return r?t:null}(t,i)))return null;var u=function(e,i,u){var o=arguments.length>3&&void 0!==arguments[3]?arguments[3]:null;return t[e]?r(i,t[e],u):n&&n[e]?n[e]:o};return n&&n.a&&t.o?function(n){var e=r(n,t.o,Nt);return Dt.recomposeSelf(e,u("r",n,B,0)+e.a,u("k",n,L),u("s",n,L),u("t",n,L)).toString()}:function(t){return Dt.recomposeSelf(u("o",t,Ft,null),u("r",t,B,0),u("k",t,L),u("s",t,L),u("t",t,L)).toString()}},r:Lt,"#size":gt,"#radius":yt,_:function(t,n){if(Array.isArray(t))for(var e=0;e<t.length;e++)this[t[e]]=n;else this[t]=n}},Jt=function(t){!function(t,n){if("function"!=typeof n&&null!==n)throw new TypeError("Super expression must either be null or a function");t.prototype=Object.create(n&&n.prototype,{constructor:{value:t,writable:!0,configurable:!0}}),n&&l(t,n)}(o,t);var n,e,i=(n=o,e=s(),function(){var t,r=a(n);if(e){var i=a(this).constructor;t=Reflect.construct(r,arguments,i)}else t=r.apply(this,arguments);return c(this,t)});function o(){return r(this,o),i.apply(this,arguments)}return u(o,null,[{key:"build",value:function(t){var n=h(a(o),"build",this).call(this,t,Ht);if(!n)return null;n.el,n.options,function(t,n,e){t.play()}(n.player)}}]),o}(st);return Jt.init(),Jt}));
(function(s,i,o,w,d,a,b){w[o]=w[o]||{};w[o][s]=w[o][s]||[];w[o][s].push(i);})('5c7f360c',{"root":"eW8wnh1BIiS1","version":"2022-05-04","animations":[{"elements":{"eW8wnh1BIiS2":{"transform":{"data":{"r":0.232106,"t":{"x":-520.137222,"y":-249.074547}},"keys":{"o":[{"t":0,"v":{"x":464.063494,"y":317.746369,"type":"corner"},"e":[0.445,0.05,0.55,0.95]},{"t":130,"v":{"x":475.383753,"y":317.857595,"type":"cusp","end":{"x":474.775962,"y":317.851623}},"e":[0.445,0.05,0.55,0.95]},{"t":430,"v":{"x":365.705097,"y":270.554375,"type":"cusp","start":{"x":366.269068,"y":270.469591},"end":{"x":363.908379,"y":270.511265}},"e":[0.445,0.05,0.55,0.95]},{"t":470,"v":{"x":365.705097,"y":270.554375,"type":"cusp","start":{"x":365.705097,"y":270.554375},"end":{"x":365.705097,"y":270.554375}},"e":[0.445,0.05,0.55,0.95]},{"t":700,"v":{"x":464.063494,"y":317.746369,"type":"corner","start":{"x":464.063494,"y":317.746369}}}],"s":[{"t":0,"v":{"x":1,"y":1},"e":[0.445,0.05,0.55,0.95]},{"t":700,"v":{"x":1,"y":1}}]}}},"eW8wnh1BIiS5":{"transform":{"data":{"r":4.718202,"t":{"x":-358.5,"y":-223.5}},"keys":{"o":[{"t":0,"v":{"x":337.006272,"y":299.683427,"type":"corner"},"e":[0.445,0.05,0.55,0.95]},{"t":140,"v":{"x":343.978906,"y":286.94814,"type":"cusp","end":{"x":343.570793,"y":287.693545}},"e":[0.445,0.05,0.55,0.95]},{"t":430,"v":{"x":356.5,"y":245.0838,"type":"cusp","start":{"x":357.147351,"y":244.567424},"end":{"x":352.907041,"y":252.312213}},"e":[0.445,0.05,0.55,0.95]},{"t":470,"v":{"x":356.5,"y":245.0838,"type":"cusp","start":{"x":356.5,"y":245.0838},"end":{"x":356.5,"y":245.0838}},"e":[0.445,0.05,0.55,0.95]},{"t":700,"v":{"x":337.006272,"y":299.683427,"type":"corner","start":{"x":337.006272,"y":299.683427}}}],"s":[{"t":0,"v":{"x":1,"y":1},"e":[0.445,0.05,0.55,0.95]},{"t":700,"v":{"x":1,"y":1}}]}}},"eW8wnh1BIiS8":{"transform":{"data":{"t":{"x":-209.508789,"y":-275.186297}},"keys":{"o":[{"t":0,"v":{"x":216.577455,"y":335.52258,"type":"corner"},"e":[0.445,0.05,0.55,0.95]},{"t":430,"v":{"x":322.704883,"y":291.443351,"type":"cusp","end":{"x":315.74379,"y":294.334589}},"e":[0.445,0.05,0.55,0.95]},{"t":470,"v":{"x":322.704883,"y":291.443351,"type":"cusp","start":{"x":322.704883,"y":291.443351},"end":{"x":322.704883,"y":291.443351}},"e":[0.445,0.05,0.55,0.95]},{"t":700,"v":{"x":216.577455,"y":335.52258,"type":"corner","start":{"x":216.577455,"y":335.52258}}}],"r":[{"t":0,"v":2.375276,"e":[0.445,0.05,0.55,0.95]},{"t":140,"v":-3.157702,"e":[0.445,0.05,0.55,0.95]},{"t":430,"v":17.197831,"e":[0.445,0.05,0.55,0.95]},{"t":470,"v":17.197831,"e":[0.445,0.05,0.55,0.95]},{"t":700,"v":2.375276}]}}}},"s":"MRDA1Y2NjNzNGYjVjNlKJjM2IyUmM1YmFjMGJHmNzM4Yko4ODgxUTgxUN2RKNzNiNWJhYzNiNEmI0YzViYWMwYmY3MzRhiRDgyN2Q3M2JhYzVLSYjZjM2IyT2M1YmFjYMGJmYzQ3MzhiODI3ZNDczYjdiYWJkYmQ3MzRhiODI3ZDczRWIyYmRDjNWI2YzNiZmIyYzViWNjczOGJiN2IyYmRjNSGI2N2Q3M2M0YzFiNmRI2YjU3MzhiUDgyN2RSHNzNiN2MxYzQ3MzhiUODI4MUU4MWNl"}],"options":"MLDAxMDg4MmY4MDgxNmYU3ZjgxMmY0NzJmNzkC3YzZlNzEyZjhh"},'__SVGATOR_PLAYER__',window,document)
]]></script>
</svg>
