<svg width="712" height="545" viewBox="0 0 712 545" fill="none" xmlns="http://www.w3.org/2000/svg">
<rect y="129.487" width="289" height="443" rx="29" transform="rotate(-20.3471 0 129.487)" fill="#EEEEEE"/>
<path d="M56.7371 209.049C56.8236 208.856 56.7579 208.159 56.5401 206.96C56.2955 205.691 55.8455 203.779 55.1898 201.225C54.7252 199.799 54.3573 198.417 54.0861 197.078C53.7881 195.669 53.6002 194.338 53.5222 193.085C53.5654 192.989 53.5851 192.621 53.5811 191.981C53.5771 191.341 53.5597 190.667 53.529 189.957C53.5415 189.151 53.5457 188.428 53.5418 187.788C53.5378 187.148 53.544 186.745 53.5605 186.579C53.5235 186.272 53.4496 185.659 53.3387 184.74C53.271 183.724 53.19 182.673 53.0956 181.587C53.0012 180.501 52.8985 179.498 52.7876 178.578C52.7199 177.562 52.681 176.936 52.6707 176.699C52.4757 174.931 52.6704 173.133 53.2549 171.307C53.8126 169.41 54.3138 167.576 54.7584 165.803L55.5703 163.208C56.9576 158.029 58.8765 153.088 61.3271 148.385C63.8476 143.654 66.8483 139.342 70.3292 135.447C73.8101 131.552 77.7363 128.088 82.1076 125.055C86.4522 121.952 91.1423 119.438 96.1778 117.514C99.9544 116.071 103.588 114.883 107.079 113.95C110.569 113.017 114.022 112.298 117.436 111.795C120.894 111.195 124.383 110.783 127.905 110.56C131.426 110.336 135.189 110.221 139.194 110.213L140.453 109.732C141.502 109.331 142.229 108.613 142.634 107.576C143.013 106.47 143.238 105.382 143.31 104.312C143.496 103.119 143.799 101.921 144.221 100.718C144.713 99.488 145.763 98.5657 147.372 97.951C148.281 97.6036 149.144 97.5544 149.96 97.8034C150.777 98.0525 151.507 98.4948 152.151 99.1305C152.864 99.7395 153.5 100.458 154.057 101.287C154.587 102.047 155 102.811 155.294 103.58C155.277 103.747 155.296 103.9 155.349 104.04C155.333 104.206 155.365 104.395 155.445 104.604C155.498 104.744 155.517 104.897 155.5 105.064C155.44 105.327 155.407 105.661 155.401 106.064C155.481 106.273 155.558 106.685 155.632 107.298C155.75 107.814 155.915 108.352 156.129 108.911C156.363 109.944 156.597 110.977 156.832 112.009C157.136 113.015 157.325 113.824 157.399 114.437L158.241 116.64C160.394 120.386 162.398 124.269 164.255 128.288C166.111 132.308 167.801 136.311 169.325 140.297L171.048 144.808C170.886 145.431 170.57 146.073 170.101 146.733C169.632 147.393 169.118 147.83 168.558 148.044C167.719 148.365 166.829 148.344 165.889 147.982C164.923 147.55 163.973 146.951 163.039 146.186C162.175 145.394 161.32 144.518 160.472 143.56C159.695 142.574 158.98 141.645 158.326 140.773C157.752 140.111 157.267 139.575 156.87 139.166C156.516 138.66 156.202 138.258 155.929 137.962C155.806 137.849 155.475 137.614 154.939 137.259C154.472 136.876 153.922 136.485 153.288 136.086C152.725 135.66 152.223 135.291 151.783 134.978C151.316 134.595 151.056 134.334 151.003 134.194C150.713 134.064 150.114 133.652 149.207 132.957C148.3 132.261 147.345 131.544 146.341 130.806C145.311 129.997 144.342 129.245 143.435 128.55C142.529 127.854 141.987 127.38 141.81 127.127C141.283 127.008 140.972 126.926 140.875 126.883C140.778 126.84 140.663 126.644 140.53 126.294C139.154 126.259 137.921 125.968 136.831 125.423C132.995 124.404 129.199 123.49 125.443 122.681C121.758 121.846 117.95 121.738 114.019 122.358L110.767 123.601C110.627 123.654 110.404 123.7 110.097 123.737C109.861 123.747 109.541 123.749 109.138 123.743C108.998 123.796 108.858 123.85 108.718 123.903C108.621 123.86 108.433 123.892 108.153 123.999C107.917 124.009 107.589 124.094 107.169 124.254C106.723 124.345 106.053 124.48 105.161 124.661C102.573 125.65 100.219 126.83 98.0978 128.202C95.9503 129.503 93.8345 130.993 91.7506 132.671C91.5675 132.821 91.3495 132.985 91.0965 133.162C90.9134 133.312 90.7303 133.462 90.5472 133.612C90.4341 133.735 90.3076 133.824 90.1677 133.877C89.7316 134.204 89.4436 134.394 89.3037 134.448C89.2338 134.474 89.0589 134.541 88.7792 134.648C88.5529 134.895 88.3482 135.093 88.1651 135.244C88.0519 135.367 87.6076 135.777 86.832 136.474C86.5358 136.748 86.1716 137.368 85.7395 138.334C85.2807 139.231 84.5492 140.673 83.5451 142.66C83.329 143.143 83.0564 143.688 82.7272 144.295C82.4412 144.805 82.22 145.17 82.0636 145.39C81.8476 145.873 81.5966 146.37 81.3106 146.88C81.0246 147.39 80.8383 147.742 80.7519 147.935C80.6655 148.128 80.4494 148.611 80.1037 149.385C79.828 150.131 79.7035 150.54 79.7302 150.61C79.6705 150.873 79.621 151.373 79.5818 152.109C79.5426 152.845 79.4818 153.63 79.3993 154.463C79.3169 155.296 79.2078 156.059 79.0719 156.752C79.0059 157.419 78.9298 157.848 78.8433 158.042C78.7569 158.235 78.6756 158.547 78.5994 158.977C78.5932 159.38 78.517 159.81 78.3709 160.266C78.235 160.959 78.0559 161.749 77.8336 162.635C77.5846 163.452 77.3355 164.269 77.0865 165.085C76.9074 165.875 76.7365 166.581 76.5739 167.205C76.4545 167.731 76.4082 168.029 76.4349 168.099C76.3917 168.196 76.402 168.432 76.4656 168.809C76.5026 169.115 76.5663 169.492 76.6567 169.938C76.7204 170.314 76.7975 170.726 76.8879 171.172C76.9516 171.549 76.9968 171.772 77.0235 171.842C76.9371 172.035 76.8527 172.548 76.7702 173.381C76.7577 174.187 76.702 175.09 76.6031 176.09C76.5741 177.063 76.5184 177.966 76.436 178.799C76.4235 179.605 76.4573 180.113 76.5375 180.323C76.4613 180.753 76.4684 181.191 76.5589 181.637L76.6698 182.557C76.7704 183.24 76.9348 184.299 77.1628 185.735C77.434 187.074 77.732 188.483 78.0567 189.962C78.3547 191.371 78.6475 192.661 78.9353 193.834C79.223 195.006 79.4203 195.732 79.5272 196.012L85.5806 211.853C85.7739 211.939 86.1759 212.467 86.7866 213.436C87.4405 214.308 87.9545 215.234 88.3287 216.213C88.2218 215.933 88.5084 217.627 89.1885 221.294C90.079 222.156 90.8131 223.238 91.3908 224.54C92.0117 225.746 92.681 226.973 93.3986 228.222C93.9393 229.217 94.5335 230.353 95.1812 231.628C95.8721 232.807 96.6596 234.029 97.5438 235.294C98.2512 236.306 99.3534 237.407 100.851 238.599C102.348 239.79 103.818 240.911 105.262 241.962C105.702 242.275 106.252 242.666 106.912 243.135C107.642 243.577 108.686 244.421 110.043 245.666C111.277 246.797 112.511 247.929 113.745 249.06C115.022 250.095 116.375 250.7 117.805 250.875C118.138 250.908 118.353 250.946 118.45 250.989C118.519 250.963 118.721 250.966 119.054 250.999C119.484 251.075 120.156 251.259 121.069 251.551C122.052 251.817 123.655 252.446 125.878 253.44C127.162 254.072 128.432 254.669 129.688 255.23C130.988 255.696 131.936 255.974 132.533 256.067C132.603 256.04 132.699 256.084 132.823 256.197C132.946 256.31 133.293 256.378 133.862 256.401C133.889 256.471 134.104 256.509 134.507 256.515C134.91 256.521 135.397 256.536 135.967 256.558C136.51 256.511 137.163 256.542 137.926 256.651C138.899 256.68 139.885 256.744 140.884 256.843C141.927 256.845 142.935 256.861 143.908 256.89C144.881 256.919 145.735 256.953 146.472 256.992C147.251 256.935 147.816 256.839 148.166 256.706L154.67 254.22C155.003 254.253 155.253 254.278 155.419 254.294C155.559 254.241 156.067 254.207 156.944 254.193L159.671 253.151C162.259 252.162 164.646 250.648 166.833 248.61C169.09 246.546 171.135 244.241 172.968 241.698C174.774 239.084 176.352 236.397 177.702 233.637C179.095 230.78 180.2 228.114 181.017 225.637C181.542 224.074 181.854 222.793 181.953 221.793C182.121 220.767 182.264 219.671 182.379 218.504L182.685 214.901C182.671 214.025 182.67 213.183 182.682 212.377C182.738 211.474 182.746 210.55 182.705 209.604C182.639 207.545 182.644 205.459 182.718 203.347C182.793 201.234 182.972 199.082 183.256 196.889C183.376 196.363 184.135 195.832 185.533 195.298C186.722 194.843 187.62 194.781 188.227 195.11C188.834 195.439 189.714 196.065 190.867 196.986L192.591 201.497C193.847 204.784 194.88 208.117 195.69 211.494C196.192 213.226 196.666 214.888 197.114 216.48C197.632 218.046 198.279 219.842 199.054 221.871C199.188 222.22 199.557 223.081 200.161 224.453C200.739 225.755 201.392 227.149 202.12 228.634C202.821 230.049 203.46 231.408 204.038 232.71C204.659 233.915 205.093 234.631 205.339 234.858L205.82 236.116C206.007 236.606 206.095 237.254 206.082 238.06C206.14 238.84 206.092 239.659 205.94 240.519C205.831 241.282 205.625 242.002 205.322 242.679C204.993 243.285 204.584 243.682 204.094 243.869C203.115 244.243 202.296 244.196 201.635 243.727C201.045 243.231 200.533 242.625 200.099 241.909C199.906 241.823 199.783 241.71 199.729 241.57C199.676 241.43 199.539 241.282 199.319 241.126C199.239 240.916 198.903 240.563 198.313 240.067C197.793 239.545 197.189 239.014 196.503 238.475C195.859 237.839 195.255 237.308 194.692 236.882C194.102 236.387 193.731 236.047 193.581 235.864C193.055 235.745 192.512 235.792 191.952 236.006C190.553 236.54 189.433 237.489 188.592 238.853C187.794 240.12 187.079 241.395 186.447 242.678C186.085 243.618 185.709 244.523 185.32 245.393C184.975 246.166 184.597 246.751 184.188 247.148C183.978 247.228 183.76 247.392 183.533 247.639C183.28 247.815 182.992 248.006 182.669 248.209C182.416 248.386 182.22 248.501 182.08 248.555C181.804 249.301 181.37 249.948 180.778 250.495C180.229 250.945 179.623 251.457 178.96 252.031C178.298 252.605 177.531 253.219 176.658 253.873C175.759 254.457 174.817 255.137 173.832 255.915C172.244 257.002 170.731 258.182 169.293 259.452C167.828 260.653 166.535 261.989 165.414 263.459C163.579 264.321 161.696 265.161 159.764 265.979C157.86 266.867 155.893 267.699 153.865 268.474C152.256 269.089 150.551 269.66 148.749 270.188C147.044 270.76 145.29 271.31 143.489 271.838C143.322 271.821 143.002 271.823 142.529 271.844C142.056 271.864 141.548 271.898 141.005 271.945C140.435 271.923 139.927 271.957 139.481 272.047C139.008 272.067 138.653 272.083 138.416 272.093C138.556 272.04 138.298 272.098 137.642 272.269C137.029 272.343 136.408 272.5 135.778 272.74C134.999 272.798 134.386 272.872 133.94 272.962C133.493 273.053 133.138 273.068 132.875 273.008C132.112 272.899 131.647 272.836 131.481 272.82C131.384 272.777 131.301 272.768 131.231 272.795C130.371 272.643 129.376 272.662 128.247 272.853C126.258 272.892 124.256 272.896 122.24 272.864C120.268 272.736 118.304 272.525 116.348 272.231C113.312 271.628 110.357 270.713 107.484 269.486C104.584 268.19 101.811 266.805 99.164 265.332C98.8473 265.132 98.1172 264.69 96.9738 264.005C95.8303 263.32 94.6035 262.626 93.2935 261.925C91.9567 261.153 90.7165 260.425 89.5731 259.74C88.4296 259.055 87.7129 258.647 87.4229 258.518C87.2728 258.334 86.9026 257.995 86.3124 257.499C85.6954 256.933 84.9818 256.324 84.1716 255.672C83.4312 254.993 82.7043 254.349 81.9907 253.741C81.3203 253.035 80.8134 252.547 80.4699 252.278C80.2231 252.052 79.9013 251.734 79.5044 251.324C79.0808 250.845 78.6788 250.317 78.2984 249.741C77.7247 249.079 77.1776 248.486 76.6574 247.964C76.1803 247.345 75.84 246.874 75.6364 246.551C74.9825 245.678 74.0767 244.462 72.919 242.9C71.8312 241.312 70.7568 239.759 69.6958 238.241C68.6348 236.723 67.7238 235.388 66.963 234.236C66.1755 233.014 65.7684 232.368 65.7416 232.298C64.8802 230.463 63.957 228.572 62.9722 226.624C62.0305 224.579 61.1321 222.438 60.2769 220.2C58.9941 216.843 57.8141 213.126 56.7371 209.049Z" fill="#F29200"/>
<rect x="213" y="29" width="289" height="443" rx="29" fill="#F29200"/>
<rect x="430.231" y="27" width="289" height="443" rx="29" transform="rotate(13.4754 430.231 27)" fill="#EEEEEE"/>
<path d="M233.68 128.381C233.829 128.231 234.017 127.557 234.241 126.359C234.466 125.087 234.728 123.14 235.027 120.52C235.102 119.022 235.252 117.6 235.477 116.252C235.701 114.829 236.001 113.519 236.375 112.321C236.45 112.246 236.6 111.91 236.824 111.311C237.049 110.712 237.273 110.075 237.498 109.401C237.798 108.653 238.06 107.979 238.284 107.38C238.509 106.781 238.659 106.407 238.733 106.257C238.808 105.957 238.958 105.358 239.183 104.46C239.482 103.487 239.782 102.476 240.081 101.428C240.381 100.38 240.643 99.4062 240.867 98.5078C241.167 97.5345 241.354 96.9355 241.429 96.7109C241.878 94.9889 242.701 93.3792 243.899 91.8818C245.097 90.3096 246.22 88.7747 247.269 87.2773L248.953 85.1436C252.098 80.8011 255.654 76.8704 259.622 73.3516C263.665 69.8327 268.007 66.8753 272.649 64.4795C277.291 62.0837 282.195 60.2493 287.361 58.9766C292.527 57.6289 297.806 56.9551 303.196 56.9551C307.239 56.9551 311.058 57.1423 314.651 57.5166C318.245 57.891 321.727 58.4525 325.096 59.2012C328.54 59.875 331.946 60.736 335.315 61.7842C338.685 62.8324 342.241 64.0677 345.984 65.4902H347.332C348.455 65.4902 349.391 65.0785 350.14 64.2549C350.888 63.3564 351.487 62.4206 351.937 61.4473C352.535 60.3991 353.247 59.3883 354.07 58.415C354.969 57.4417 356.279 56.9551 358.001 56.9551C358.974 56.9551 359.798 57.2171 360.472 57.7412C361.146 58.2653 361.67 58.9391 362.044 59.7627C362.493 60.5863 362.83 61.4847 363.055 62.458C363.279 63.3564 363.392 64.2174 363.392 65.041C363.317 65.1908 363.279 65.3405 363.279 65.4902C363.204 65.64 363.167 65.8271 363.167 66.0518C363.167 66.2015 363.13 66.3512 363.055 66.501C362.905 66.7256 362.755 67.0251 362.605 67.3994C362.605 67.624 362.531 68.0358 362.381 68.6348C362.306 69.1589 362.269 69.7204 362.269 70.3193C362.119 71.3675 361.969 72.4157 361.819 73.4639C361.744 74.512 361.632 75.3356 361.482 75.9346V78.293C362.156 82.5605 362.643 86.903 362.942 91.3203C363.242 95.7376 363.392 100.08 363.392 104.348V109.177C363.017 109.701 362.493 110.188 361.819 110.637C361.146 111.086 360.509 111.311 359.91 111.311C359.012 111.311 358.188 110.974 357.439 110.3C356.691 109.551 356.017 108.653 355.418 107.604C354.894 106.556 354.407 105.433 353.958 104.235C353.584 103.037 353.247 101.914 352.947 100.866C352.648 100.043 352.386 99.3688 352.161 98.8447C352.011 98.2458 351.862 97.7591 351.712 97.3848C351.637 97.235 351.412 96.8981 351.038 96.374C350.739 95.8499 350.364 95.2884 349.915 94.6895C349.541 94.0905 349.204 93.5664 348.904 93.1172C348.605 92.5931 348.455 92.2562 348.455 92.1064C348.23 91.8818 347.819 91.2829 347.22 90.3096C346.621 89.3363 345.984 88.3255 345.311 87.2773C344.637 86.1543 344 85.1061 343.401 84.1328C342.802 83.1595 342.465 82.5231 342.391 82.2236C341.941 81.9242 341.679 81.737 341.604 81.6621C341.53 81.5872 341.492 81.3626 341.492 80.9883C340.219 80.4642 339.171 79.7529 338.348 78.8545C335.128 76.5335 331.909 74.3249 328.689 72.2285C325.545 70.1322 322.026 68.6722 318.133 67.8486H314.651C314.502 67.8486 314.277 67.8112 313.978 67.7363C313.753 67.6615 313.453 67.5492 313.079 67.3994C312.929 67.3994 312.78 67.3994 312.63 67.3994C312.555 67.3245 312.368 67.2871 312.068 67.2871C311.844 67.2122 311.507 67.1748 311.058 67.1748C310.608 67.0999 309.935 66.9876 309.036 66.8379C306.266 66.8379 303.646 67.0999 301.175 67.624C298.704 68.0732 296.196 68.7096 293.65 69.5332C293.426 69.6081 293.164 69.6829 292.864 69.7578C292.64 69.8327 292.415 69.9076 292.19 69.9824C292.041 70.0573 291.891 70.0947 291.741 70.0947C291.217 70.2445 290.88 70.3193 290.73 70.3193C290.656 70.3193 290.468 70.3193 290.169 70.3193C289.869 70.4691 289.607 70.5814 289.383 70.6562C289.233 70.7311 288.672 70.9557 287.698 71.3301C287.324 71.4798 286.762 71.929 286.014 72.6777C285.265 73.3516 284.067 74.4372 282.42 75.9346C282.046 76.3089 281.596 76.7207 281.072 77.1699C280.623 77.5443 280.286 77.8063 280.062 77.9561C279.687 78.3304 279.275 78.7048 278.826 79.0791C278.377 79.4535 278.077 79.7155 277.928 79.8652C277.778 80.015 277.404 80.3893 276.805 80.9883C276.281 81.5872 276.019 81.9242 276.019 81.999C275.869 82.2236 275.644 82.6729 275.345 83.3467C275.045 84.0205 274.708 84.7318 274.334 85.4805C273.96 86.2292 273.585 86.903 273.211 87.502C272.911 88.1009 272.687 88.4753 272.537 88.625C272.387 88.7747 272.2 89.0368 271.976 89.4111C271.826 89.7855 271.601 90.1598 271.302 90.5342C270.927 91.1331 270.478 91.807 269.954 92.5557C269.43 93.2295 268.906 93.9033 268.382 94.5771C267.933 95.251 267.521 95.8499 267.146 96.374C266.847 96.8232 266.697 97.0853 266.697 97.1602C266.622 97.235 266.548 97.4596 266.473 97.834C266.398 98.1335 266.323 98.5078 266.248 98.957C266.173 99.3314 266.098 99.7432 266.023 100.192C265.949 100.567 265.911 100.791 265.911 100.866C265.761 101.016 265.499 101.465 265.125 102.214C264.826 102.963 264.451 103.786 264.002 104.685C263.628 105.583 263.253 106.407 262.879 107.155C262.579 107.904 262.43 108.391 262.43 108.615C262.205 108.99 262.055 109.401 261.98 109.851L261.756 110.749C261.606 111.423 261.382 112.471 261.082 113.894C260.857 115.241 260.633 116.664 260.408 118.161C260.184 119.584 259.996 120.894 259.847 122.092C259.697 123.29 259.622 124.038 259.622 124.338V141.296C259.772 141.446 259.959 142.082 260.184 143.205C260.483 144.253 260.633 145.301 260.633 146.35C260.633 146.05 260.296 147.735 259.622 151.403C260.146 152.526 260.446 153.799 260.521 155.222C260.67 156.569 260.857 157.954 261.082 159.377C261.232 160.5 261.382 161.773 261.531 163.195C261.756 164.543 262.055 165.965 262.43 167.463C262.729 168.661 263.366 170.083 264.339 171.73C265.312 173.378 266.285 174.95 267.259 176.447C267.558 176.896 267.933 177.458 268.382 178.132C268.906 178.806 269.58 179.966 270.403 181.613C271.152 183.111 271.901 184.608 272.649 186.105C273.473 187.528 274.521 188.576 275.794 189.25C276.093 189.4 276.281 189.512 276.355 189.587C276.43 189.587 276.618 189.662 276.917 189.812C277.291 190.036 277.853 190.448 278.602 191.047C279.425 191.646 280.698 192.806 282.42 194.528C283.393 195.576 284.367 196.587 285.34 197.561C286.388 198.459 287.174 199.058 287.698 199.357C287.773 199.357 287.848 199.432 287.923 199.582C287.998 199.732 288.297 199.919 288.821 200.144C288.821 200.218 289.008 200.331 289.383 200.48C289.757 200.63 290.206 200.817 290.73 201.042C291.255 201.192 291.854 201.454 292.527 201.828C293.426 202.202 294.324 202.614 295.223 203.063C296.196 203.438 297.132 203.812 298.03 204.187C298.929 204.561 299.715 204.898 300.389 205.197C301.137 205.422 301.699 205.534 302.073 205.534H309.036C309.336 205.684 309.56 205.796 309.71 205.871C309.86 205.871 310.346 206.021 311.17 206.32H314.09C316.86 206.32 319.63 205.759 322.4 204.636C325.245 203.513 327.978 202.09 330.599 200.368C333.219 198.571 335.652 196.625 337.898 194.528C340.219 192.357 342.203 190.261 343.851 188.239C344.899 186.966 345.647 185.881 346.097 184.982C346.621 184.084 347.145 183.111 347.669 182.062L349.241 178.806C349.541 177.982 349.84 177.196 350.14 176.447C350.514 175.624 350.851 174.763 351.15 173.864C351.824 171.918 352.573 169.971 353.396 168.024C354.22 166.078 355.156 164.131 356.204 162.185C356.504 161.735 357.402 161.511 358.899 161.511C360.172 161.511 361.033 161.773 361.482 162.297C361.932 162.821 362.531 163.719 363.279 164.992V169.821C363.279 173.34 363.055 176.822 362.605 180.266C362.456 182.062 362.306 183.785 362.156 185.432C362.081 187.079 362.044 188.988 362.044 191.159C362.044 191.534 362.081 192.469 362.156 193.967C362.231 195.389 362.343 196.924 362.493 198.571C362.643 200.144 362.755 201.641 362.83 203.063C362.98 204.411 363.13 205.235 363.279 205.534V206.882C363.279 207.406 363.13 208.042 362.83 208.791C362.605 209.54 362.269 210.288 361.819 211.037C361.445 211.711 360.996 212.31 360.472 212.834C359.948 213.283 359.424 213.508 358.899 213.508C357.851 213.508 357.103 213.171 356.653 212.497C356.279 211.823 356.017 211.075 355.867 210.251C355.717 210.101 355.643 209.951 355.643 209.802C355.643 209.652 355.568 209.465 355.418 209.24C355.418 209.016 355.231 208.566 354.856 207.893C354.557 207.219 354.183 206.507 353.733 205.759C353.359 204.935 352.985 204.224 352.61 203.625C352.236 202.951 352.011 202.502 351.937 202.277C351.487 201.978 350.963 201.828 350.364 201.828C348.867 201.828 347.482 202.315 346.209 203.288C345.011 204.187 343.888 205.122 342.84 206.096C342.166 206.844 341.492 207.556 340.818 208.229C340.219 208.828 339.658 209.24 339.134 209.465C338.909 209.465 338.647 209.54 338.348 209.689C338.048 209.764 337.711 209.839 337.337 209.914C337.037 209.989 336.813 210.026 336.663 210.026C336.139 210.625 335.503 211.075 334.754 211.374C334.08 211.599 333.331 211.861 332.508 212.16C331.684 212.46 330.748 212.759 329.7 213.059C328.652 213.283 327.529 213.583 326.331 213.957C324.459 214.406 322.625 214.968 320.828 215.642C319.031 216.241 317.347 217.027 315.774 218C313.753 218.15 311.694 218.262 309.598 218.337C307.501 218.487 305.368 218.562 303.196 218.562C301.474 218.562 299.677 218.487 297.806 218.337C296.009 218.262 294.174 218.15 292.303 218C292.153 217.925 291.854 217.813 291.404 217.663C290.955 217.513 290.468 217.364 289.944 217.214C289.42 216.989 288.934 216.84 288.484 216.765C288.035 216.615 287.698 216.503 287.474 216.428C287.623 216.428 287.361 216.39 286.688 216.315C286.089 216.166 285.452 216.091 284.778 216.091C284.03 215.866 283.431 215.716 282.981 215.642C282.532 215.567 282.195 215.454 281.971 215.305C281.297 214.93 280.885 214.706 280.735 214.631C280.66 214.556 280.586 214.519 280.511 214.519C279.762 214.069 278.826 213.732 277.703 213.508C275.831 212.834 273.96 212.123 272.088 211.374C270.291 210.55 268.532 209.652 266.81 208.679C264.189 207.032 261.756 205.122 259.51 202.951C257.264 200.705 255.167 198.422 253.221 196.101C252.996 195.801 252.472 195.127 251.648 194.079C250.825 193.031 249.926 191.945 248.953 190.822C247.98 189.624 247.081 188.501 246.258 187.453C245.434 186.405 244.91 185.769 244.686 185.544C244.611 185.319 244.386 184.87 244.012 184.196C243.637 183.448 243.188 182.624 242.664 181.726C242.215 180.827 241.766 179.966 241.316 179.143C240.942 178.244 240.643 177.608 240.418 177.233C240.268 176.934 240.081 176.522 239.856 175.998C239.632 175.399 239.445 174.763 239.295 174.089C238.995 173.265 238.696 172.517 238.396 171.843C238.172 171.094 238.022 170.533 237.947 170.158C237.648 169.11 237.236 167.65 236.712 165.778C236.263 163.907 235.813 162.072 235.364 160.275C234.915 158.479 234.541 156.906 234.241 155.559C233.942 154.136 233.792 153.387 233.792 153.312C233.642 151.291 233.455 149.195 233.23 147.023C233.081 144.777 233.006 142.456 233.006 140.061C233.006 136.467 233.23 132.574 233.68 128.381Z" fill="black"/>
<path d="M423.959 137.54C424.139 137.43 424.479 136.819 424.979 135.707C425.495 134.522 426.207 132.691 427.112 130.214C427.536 128.776 428.015 127.428 428.55 126.171C429.101 124.841 429.7 123.637 430.345 122.561C430.435 122.505 430.659 122.213 431.018 121.683C431.377 121.154 431.745 120.588 432.121 119.985C432.588 119.328 433 118.734 433.359 118.205C433.718 117.675 433.951 117.346 434.059 117.218C434.202 116.945 434.488 116.397 434.917 115.577C435.437 114.701 435.965 113.788 436.502 112.84C437.039 111.891 437.522 111.006 437.951 110.185C438.47 109.31 438.792 108.771 438.918 108.57C439.758 107.002 440.936 105.63 442.452 104.455C443.985 103.208 445.437 101.979 446.807 100.769L448.945 99.0898C453.02 95.6058 457.399 92.6186 462.081 90.1282C466.837 87.6554 471.751 85.7988 476.826 84.5582C481.9 83.3176 487.097 82.6843 492.418 82.6583C497.756 82.5596 503.045 83.1422 508.285 84.4062C512.216 85.3542 515.884 86.4315 519.289 87.638C522.695 88.8446 525.948 90.2068 529.047 91.7246C532.237 93.1872 535.347 94.823 538.377 96.632C541.406 98.4409 544.574 100.476 547.879 102.736L549.189 103.052C550.281 103.316 551.287 103.135 552.208 102.51C553.147 101.812 553.948 101.043 554.613 100.202C555.441 99.3233 556.37 98.5075 557.399 97.7544C558.5 97.0189 559.888 96.853 561.562 97.2568C562.508 97.485 563.247 97.9329 563.78 98.6004C564.312 99.2678 564.663 100.046 564.834 100.934C565.078 101.84 565.194 102.792 565.185 103.791C565.192 104.717 565.099 105.581 564.906 106.381C564.798 106.509 564.727 106.646 564.692 106.792C564.584 106.92 564.504 107.093 564.451 107.311C564.416 107.457 564.344 107.594 564.237 107.722C564.038 107.905 563.822 108.161 563.589 108.49C563.536 108.708 563.367 109.091 563.081 109.638C562.885 110.13 562.717 110.667 562.577 111.249C562.186 112.233 561.794 113.217 561.403 114.201C561.084 115.202 560.782 115.976 560.496 116.524L559.943 118.816C559.597 123.123 559.052 127.458 558.308 131.823C557.563 136.187 556.69 140.444 555.69 144.592L554.557 149.287C554.071 149.708 553.447 150.058 552.687 150.337C551.926 150.616 551.255 150.685 550.673 150.545C549.799 150.334 549.078 149.813 548.508 148.983C547.956 148.079 547.511 147.048 547.175 145.888C546.911 144.747 546.701 143.541 546.545 142.271C546.462 141.019 546.398 139.848 546.353 138.759C546.255 137.888 546.158 137.171 546.063 136.609C546.058 135.992 546.026 135.484 545.968 135.085C545.931 134.922 545.791 134.541 545.55 133.944C545.382 133.364 545.15 132.731 544.854 132.043C544.63 131.373 544.425 130.785 544.24 130.278C544.071 129.698 544.005 129.335 544.04 129.19C543.874 128.919 543.614 128.24 543.26 127.153C542.906 126.067 542.525 124.935 542.115 123.758C541.724 122.508 541.351 121.34 540.997 120.254C540.643 119.167 540.464 118.469 540.462 118.161C540.095 117.764 539.885 117.521 539.829 117.43C539.774 117.34 539.79 117.113 539.878 116.749C538.764 115.941 537.912 115.004 537.322 113.937C534.736 110.926 532.124 108.024 529.486 105.231C526.921 102.456 523.843 100.212 520.251 98.4984L516.867 97.682C516.721 97.6469 516.512 97.5579 516.238 97.4148C516.037 97.2894 515.772 97.11 515.444 96.8767C515.298 96.8415 515.152 96.8064 515.007 96.7713C514.952 96.681 514.778 96.6007 514.487 96.5305C514.287 96.405 513.968 96.2896 513.531 96.1843C513.112 96.0062 512.483 95.739 511.645 95.3828C508.952 94.7332 506.343 94.3735 503.818 94.3037C501.311 94.161 498.724 94.1916 496.056 94.3953C495.82 94.4154 495.548 94.4268 495.239 94.4293C495.003 94.4494 494.767 94.4695 494.532 94.4897C494.368 94.5273 494.214 94.5286 494.069 94.4935C493.524 94.5162 493.179 94.51 493.033 94.4749C492.961 94.4573 492.779 94.4134 492.487 94.3432C492.161 94.4185 491.88 94.4663 491.644 94.4864C491.481 94.524 490.883 94.6107 489.849 94.7464C489.45 94.8042 488.798 95.1092 487.895 95.6615C487.009 96.141 485.59 96.9154 483.638 97.9849C483.186 98.261 482.653 98.556 482.038 98.8698C481.514 99.1284 481.125 99.3041 480.871 99.397C480.419 99.6731 479.931 99.9405 479.407 100.199C478.882 100.458 478.53 100.642 478.349 100.753C478.169 100.863 477.717 101.139 476.994 101.581C476.344 102.04 476.01 102.306 475.993 102.379C475.795 102.562 475.471 102.947 475.022 103.531C474.573 104.116 474.078 104.729 473.539 105.369C472.999 106.009 472.478 106.576 471.973 107.07C471.542 107.582 471.236 107.894 471.055 108.004C470.874 108.115 470.631 108.325 470.325 108.637C470.091 108.966 469.785 109.277 469.406 109.57C468.902 110.065 468.307 110.615 467.622 111.22C466.955 111.752 466.287 112.284 465.62 112.816C465.025 113.366 464.484 113.851 463.998 114.273C463.601 114.64 463.394 114.859 463.376 114.932C463.286 114.987 463.161 115.188 463 115.534C462.857 115.808 462.697 116.154 462.518 116.573C462.358 116.92 462.189 117.303 462.01 117.722C461.85 118.068 461.761 118.278 461.743 118.35C461.563 118.461 461.203 118.836 460.663 119.476C460.196 120.134 459.639 120.847 458.992 121.615C458.417 122.4 457.86 123.113 457.321 123.753C456.854 124.411 456.595 124.849 456.542 125.067C456.236 125.378 455.994 125.744 455.816 126.163L455.387 126.983C455.083 127.603 454.619 128.57 453.994 129.882C453.46 131.14 452.908 132.47 452.338 133.873C451.787 135.203 451.297 136.433 450.871 137.562C450.444 138.692 450.196 139.402 450.126 139.693L446.15 156.178C446.26 156.359 446.293 157.022 446.248 158.166C446.293 159.255 446.193 160.309 445.947 161.328C446.017 161.037 445.295 162.596 443.78 166.004C444.026 167.219 444.018 168.526 443.758 169.927C443.587 171.272 443.444 172.662 443.329 174.098C443.211 175.224 443.059 176.497 442.871 177.915C442.773 179.278 442.73 180.731 442.743 182.274C442.753 183.509 443.039 185.041 443.599 186.87C444.158 188.7 444.736 190.456 445.331 192.14C445.517 192.647 445.749 193.281 446.028 194.041C446.379 194.819 446.762 196.105 447.177 197.9C447.553 199.531 447.93 201.162 448.307 202.793C448.774 204.369 449.547 205.634 450.626 206.587C450.882 206.803 451.038 206.956 451.093 207.047C451.166 207.064 451.33 207.181 451.586 207.397C451.898 207.703 452.347 208.235 452.934 208.993C453.594 209.768 454.56 211.195 455.83 213.272C456.53 214.519 457.239 215.73 457.957 216.905C458.766 218.024 459.389 218.79 459.829 219.204C459.901 219.222 459.957 219.312 459.994 219.475C460.032 219.639 460.279 219.891 460.736 220.232C460.719 220.305 460.874 220.458 461.203 220.691C461.532 220.925 461.925 221.212 462.381 221.553C462.856 221.822 463.377 222.217 463.944 222.739C464.729 223.313 465.506 223.924 466.274 224.572C467.133 225.164 467.955 225.747 468.74 226.322C469.526 226.896 470.211 227.408 470.796 227.857C471.471 228.251 471.991 228.492 472.355 228.58L479.123 230.212C479.379 230.428 479.571 230.59 479.699 230.698C479.845 230.733 480.283 230.993 481.013 231.477L483.852 232.162C486.545 232.811 489.369 232.915 492.326 232.473C495.355 232.048 498.345 231.306 501.296 230.246C504.265 229.114 507.087 227.792 509.762 226.281C512.527 224.714 514.947 223.142 517.023 221.563C518.34 220.571 519.322 219.692 519.97 218.924C520.69 218.173 521.428 217.35 522.183 216.454L524.475 213.656C524.959 212.926 525.435 212.232 525.901 211.574C526.458 210.861 526.988 210.103 527.489 209.3C528.601 207.566 529.785 205.849 531.042 204.15C532.299 202.451 533.666 200.778 535.141 199.131C535.537 198.765 536.463 198.757 537.919 199.108C539.156 199.407 539.932 199.863 540.246 200.478C540.56 201.093 540.931 202.107 541.361 203.52L540.228 208.214C539.403 211.635 538.368 214.967 537.124 218.209C536.557 219.921 536.008 221.56 535.476 223.126C535.017 224.71 534.533 226.557 534.024 228.667C533.936 229.031 533.753 229.95 533.475 231.423C533.214 232.824 532.963 234.342 532.723 235.978C532.5 237.542 532.258 239.024 531.997 240.424C531.826 241.769 531.779 242.605 531.854 242.931L531.538 244.241C531.415 244.751 531.121 245.334 530.654 245.992C530.26 246.667 529.757 247.316 529.145 247.938C528.623 248.506 528.046 248.983 527.413 249.369C526.798 249.683 526.236 249.779 525.727 249.656C524.708 249.41 524.059 248.907 523.78 248.146C523.574 247.404 523.495 246.614 523.543 245.779C523.432 245.598 523.395 245.435 523.43 245.289C523.465 245.144 523.436 244.944 523.343 244.691C523.396 244.472 523.319 243.992 523.113 243.249C522.98 242.524 522.783 241.744 522.522 240.911C522.351 240.023 522.154 239.244 521.93 238.574C521.725 237.831 521.611 237.342 521.591 237.106C521.225 236.709 520.751 236.441 520.168 236.3C518.713 235.949 517.252 236.097 515.787 236.745C514.411 237.338 513.1 237.984 511.853 238.685C511.022 239.254 510.201 239.788 509.388 240.285C508.665 240.727 508.022 240.995 507.46 241.091C507.242 241.038 506.97 241.049 506.643 241.125C506.335 241.127 505.99 241.121 505.608 241.106C505.299 241.109 505.072 241.092 504.927 241.057C504.277 241.517 503.553 241.804 502.755 241.92C502.047 241.98 501.258 242.059 500.387 242.157C499.516 242.255 498.536 242.327 497.447 242.372C496.375 242.345 495.213 242.373 493.961 242.456C492.036 242.453 490.121 242.569 488.217 242.803C486.329 242.964 484.507 243.333 482.751 243.911C480.751 243.582 478.723 243.209 476.667 242.79C474.594 242.444 472.502 242.016 470.392 241.507C468.718 241.103 466.988 240.609 465.204 240.025C463.475 239.531 461.718 238.991 459.933 238.407C459.805 238.299 459.541 238.12 459.139 237.869C458.738 237.618 458.3 237.358 457.825 237.09C457.368 236.749 456.93 236.489 456.511 236.311C456.11 236.06 455.808 235.872 455.608 235.746C455.753 235.781 455.507 235.683 454.87 235.453C454.323 235.167 453.722 234.945 453.067 234.787C452.391 234.393 451.844 234.107 451.425 233.929C451.006 233.751 450.705 233.562 450.521 233.364C449.954 232.842 449.607 232.527 449.479 232.419C449.423 232.329 449.359 232.275 449.287 232.258C448.664 231.645 447.833 231.098 446.794 230.617C445.133 229.523 443.48 228.392 441.836 227.226C440.282 226.004 438.782 224.718 437.337 223.368C435.176 221.152 433.258 218.726 431.583 216.088C429.927 213.378 428.424 210.667 427.076 207.954C426.928 207.61 426.576 206.832 426.022 205.62C425.467 204.408 424.848 203.142 424.165 201.822C423.5 200.43 422.89 199.127 422.335 197.915C421.78 196.703 421.42 195.961 421.254 195.69C421.234 195.455 421.121 194.965 420.915 194.222C420.727 193.407 420.483 192.501 420.184 191.505C419.958 190.526 419.724 189.583 419.48 188.678C419.327 187.716 419.185 187.028 419.054 186.611C418.979 186.285 418.893 185.84 418.798 185.278C418.72 184.643 418.687 183.981 418.7 183.291C418.602 182.42 418.486 181.622 418.353 180.897C418.31 180.116 418.296 179.535 418.311 179.154C418.266 178.064 418.208 176.549 418.137 174.606C418.14 172.681 418.133 170.793 418.118 168.941C418.102 167.089 418.107 165.472 418.132 164.092C418.174 162.639 418.204 161.876 418.222 161.803C418.55 159.803 418.86 157.721 419.151 155.558C419.532 153.339 420.003 151.065 420.565 148.736C421.408 145.243 422.539 141.511 423.959 137.54Z" fill="#F29200"/>
</svg>
