<svg width="713" height="518" viewBox="0 0 713 518" fill="none" xmlns="http://www.w3.org/2000/svg">
<rect x="431.231" width="289" height="443" rx="29" transform="rotate(13.4754 431.231 0)" fill="#EEEEEE"/>
<path d="M425.734 207.385C426.009 207.217 426.526 206.287 427.286 204.595C428.072 202.792 429.154 200.006 430.532 196.236C431.177 194.048 431.906 191.997 432.72 190.084C433.559 188.059 434.47 186.228 435.451 184.59C435.589 184.506 435.93 184.061 436.476 183.255C437.022 182.449 437.582 181.587 438.154 180.671C438.865 179.67 439.493 178.767 440.039 177.961C440.585 177.155 440.94 176.655 441.104 176.46C441.322 176.044 441.757 175.211 442.41 173.962C443.2 172.629 444.004 171.241 444.821 169.797C445.638 168.353 446.373 167.007 447.025 165.758C447.816 164.425 448.306 163.606 448.497 163.3C449.776 160.913 451.569 158.826 453.875 157.038C456.208 155.14 458.417 153.27 460.502 151.429L463.756 148.873C469.957 143.571 476.62 139.026 483.746 135.236C490.982 131.473 498.462 128.648 506.183 126.76C513.905 124.872 521.814 123.908 529.91 123.869C538.033 123.719 546.082 124.605 554.057 126.529C560.037 127.971 565.619 129.611 570.802 131.447C575.985 133.283 580.934 135.356 585.651 137.665C590.506 139.891 595.238 142.38 599.848 145.133C604.458 147.886 609.278 150.982 614.308 154.422L616.302 154.903C617.963 155.304 619.494 155.029 620.896 154.078C622.324 153.016 623.544 151.845 624.556 150.565C625.816 149.229 627.229 147.987 628.794 146.841C630.471 145.722 632.583 145.469 635.13 146.084C636.57 146.431 637.695 147.113 638.504 148.128C639.314 149.144 639.849 150.328 640.109 151.68C640.48 153.058 640.657 154.508 640.642 156.028C640.654 157.437 640.513 158.751 640.219 159.969C640.055 160.164 639.946 160.372 639.893 160.594C639.728 160.788 639.606 161.052 639.526 161.384C639.473 161.606 639.364 161.814 639.2 162.009C638.898 162.287 638.57 162.677 638.215 163.177C638.135 163.51 637.877 164.092 637.442 164.925C637.144 165.673 636.888 166.491 636.674 167.377C636.079 168.874 635.483 170.371 634.888 171.868C634.403 173.392 633.943 174.57 633.508 175.403L632.666 178.892C632.14 185.445 631.311 192.043 630.178 198.684C629.044 205.326 627.717 211.803 626.194 218.116L624.471 225.26C623.73 225.901 622.781 226.434 621.624 226.858C620.467 227.283 619.445 227.388 618.559 227.174C617.23 226.853 616.132 226.061 615.265 224.797C614.424 223.422 613.748 221.853 613.236 220.089C612.835 218.351 612.516 216.516 612.279 214.584C612.152 212.678 612.055 210.896 611.986 209.239C611.836 207.914 611.689 206.824 611.544 205.968C611.536 205.029 611.488 204.255 611.4 203.648C611.343 203.4 611.131 202.821 610.764 201.912C610.508 201.03 610.155 200.066 609.704 199.02C609.364 198 609.052 197.105 608.77 196.333C608.514 195.451 608.412 194.899 608.466 194.678C608.214 194.265 607.818 193.232 607.28 191.579C606.741 189.925 606.16 188.203 605.537 186.412C604.941 184.51 604.374 182.732 603.835 181.079C603.296 179.425 603.025 178.364 603.021 177.894C602.463 177.291 602.142 176.92 602.058 176.783C601.974 176.645 601.999 176.3 602.133 175.746C600.437 174.517 599.14 173.09 598.242 171.467C594.308 166.885 590.334 162.469 586.319 158.219C582.415 153.996 577.731 150.581 572.265 147.973L567.115 146.731C566.894 146.678 566.575 146.542 566.158 146.324C565.853 146.134 565.45 145.861 564.95 145.505C564.728 145.452 564.507 145.399 564.285 145.345C564.201 145.208 563.937 145.086 563.494 144.979C563.189 144.788 562.704 144.612 562.039 144.452C561.402 144.181 560.445 143.774 559.169 143.232C555.071 142.244 551.101 141.696 547.259 141.59C543.444 141.373 539.507 141.419 535.447 141.729C535.088 141.76 534.674 141.777 534.204 141.781C533.845 141.812 533.486 141.842 533.127 141.873C532.879 141.93 532.644 141.932 532.422 141.879C531.594 141.913 531.069 141.904 530.847 141.851C530.736 141.824 530.459 141.757 530.016 141.65C529.52 141.765 529.092 141.837 528.733 141.868C528.485 141.925 527.574 142.057 526.001 142.264C525.394 142.352 524.403 142.816 523.028 143.656C521.68 144.386 519.52 145.564 516.55 147.192C515.862 147.612 515.051 148.061 514.115 148.538C513.317 148.932 512.725 149.199 512.339 149.341C511.652 149.761 510.909 150.168 510.111 150.561C509.313 150.955 508.777 151.236 508.502 151.404C508.227 151.572 507.539 151.992 506.44 152.664C505.451 153.363 504.943 153.768 504.916 153.879C504.614 154.158 504.122 154.742 503.438 155.632C502.755 156.522 502.003 157.454 501.182 158.428C500.361 159.402 499.567 160.265 498.799 161.018C498.142 161.797 497.677 162.271 497.402 162.439C497.127 162.607 496.756 162.928 496.29 163.401C495.935 163.902 495.469 164.375 494.893 164.822C494.125 165.575 493.22 166.411 492.178 167.332C491.162 168.141 490.146 168.951 489.131 169.761C488.226 170.598 487.403 171.337 486.662 171.978C486.059 172.536 485.744 172.87 485.717 172.981C485.58 173.065 485.389 173.371 485.144 173.898C484.927 174.314 484.682 174.841 484.411 175.479C484.167 176.006 483.909 176.588 483.638 177.226C483.394 177.753 483.258 178.072 483.232 178.183C482.957 178.351 482.409 178.922 481.588 179.896C480.878 180.897 480.03 181.981 479.045 183.15C478.171 184.346 477.323 185.431 476.502 186.404C475.792 187.405 475.397 188.072 475.317 188.404C474.851 188.878 474.482 189.433 474.211 190.071L473.558 191.32C473.097 192.263 472.39 193.734 471.44 195.731C470.626 197.645 469.787 199.669 468.92 201.804C468.08 203.828 467.336 205.7 466.687 207.418C466.038 209.137 465.66 210.218 465.553 210.661L459.502 235.747C459.67 236.022 459.72 237.03 459.652 238.772C459.721 240.429 459.568 242.033 459.194 243.584C459.301 243.141 458.202 245.513 455.896 250.699C456.27 252.548 456.259 254.537 455.862 256.668C455.603 258.715 455.386 260.831 455.21 263.016C455.031 264.73 454.798 266.667 454.512 268.824C454.364 270.898 454.299 273.109 454.319 275.458C454.334 277.337 454.768 279.669 455.62 282.452C456.472 285.236 457.351 287.91 458.257 290.472C458.539 291.243 458.893 292.208 459.317 293.365C459.852 294.548 460.435 296.506 461.065 299.236C461.638 301.718 462.212 304.201 462.785 306.683C463.496 309.081 464.672 311.006 466.315 312.457C466.704 312.785 466.941 313.018 467.025 313.155C467.136 313.182 467.386 313.36 467.776 313.688C468.249 314.154 468.933 314.963 469.827 316.117C470.831 317.297 472.3 319.467 474.233 322.629C475.299 324.527 476.378 326.37 477.471 328.157C478.701 329.86 479.65 331.026 480.318 331.656C480.429 331.683 480.513 331.821 480.57 332.069C480.628 332.317 481.004 332.701 481.699 333.22C481.672 333.331 481.909 333.564 482.41 333.919C482.91 334.274 483.508 334.711 484.203 335.23C484.925 335.639 485.717 336.24 486.58 337.034C487.776 337.909 488.958 338.839 490.127 339.824C491.433 340.725 492.684 341.612 493.879 342.487C495.075 343.361 496.118 344.14 497.008 344.824C498.035 345.423 498.826 345.789 499.379 345.923L509.68 348.408C510.069 348.736 510.362 348.982 510.556 349.146C510.778 349.2 511.444 349.595 512.556 350.332L516.875 351.374C520.973 352.362 525.272 352.52 529.77 351.847C534.38 351.201 538.93 350.072 543.421 348.459C547.938 346.736 552.233 344.725 556.303 342.425C560.511 340.041 564.194 337.648 567.352 335.245C569.357 333.737 570.852 332.398 571.837 331.229C572.933 330.087 574.056 328.834 575.205 327.47L578.693 323.214C579.43 322.102 580.153 321.046 580.864 320.045C581.711 318.961 582.517 317.807 583.28 316.585C584.972 313.946 586.774 311.333 588.687 308.747C590.6 306.162 592.679 303.616 594.924 301.11C595.527 300.553 596.936 300.541 599.152 301.075C601.034 301.529 602.215 302.224 602.692 303.16C603.17 304.095 603.735 305.638 604.389 307.788L602.665 314.932C601.41 320.137 599.835 325.207 597.942 330.142C597.079 332.747 596.243 335.241 595.434 337.624C594.736 340.034 593.999 342.845 593.224 346.057C593.091 346.61 592.812 348.008 592.389 350.25C591.992 352.381 591.61 354.692 591.244 357.182C590.904 359.561 590.536 361.816 590.139 363.947C589.88 365.994 589.808 367.266 589.922 367.763L589.442 369.756C589.255 370.531 588.806 371.419 588.096 372.42C587.496 373.448 586.731 374.435 585.799 375.382C585.005 376.245 584.127 376.971 583.164 377.559C582.229 378.037 581.373 378.182 580.598 377.995C579.047 377.621 578.06 376.856 577.636 375.699C577.323 374.568 577.202 373.367 577.275 372.095C577.106 371.82 577.049 371.572 577.103 371.351C577.156 371.129 577.112 370.826 576.971 370.44C577.051 370.108 576.934 369.376 576.621 368.246C576.418 367.142 576.118 365.956 575.721 364.689C575.461 363.337 575.161 362.151 574.821 361.131C574.508 360.001 574.336 359.256 574.305 358.897C573.747 358.294 573.025 357.885 572.139 357.672C569.924 357.137 567.702 357.363 565.472 358.349C563.379 359.25 561.384 360.234 559.486 361.3C558.222 362.167 556.971 362.979 555.734 363.735C554.634 364.408 553.657 364.816 552.801 364.962C552.469 364.881 552.054 364.899 551.558 365.013C551.088 365.017 550.563 365.008 549.983 364.985C549.513 364.989 549.167 364.964 548.946 364.911C547.957 365.61 546.855 366.047 545.641 366.223C544.564 366.315 543.363 366.435 542.037 366.585C540.712 366.734 539.221 366.843 537.564 366.912C535.933 366.87 534.165 366.912 532.259 367.039C529.33 367.035 526.416 367.212 523.517 367.567C520.645 367.812 517.873 368.374 515.2 369.253C512.156 368.753 509.07 368.184 505.942 367.547C502.788 367.021 499.604 366.37 496.392 365.595C493.845 364.981 491.214 364.229 488.498 363.34C485.867 362.588 483.193 361.767 480.478 360.878C480.283 360.713 479.88 360.44 479.269 360.059C478.658 359.677 477.991 359.282 477.269 358.873C476.574 358.354 475.908 357.959 475.27 357.688C474.659 357.306 474.201 357.02 473.895 356.829C474.117 356.882 473.742 356.733 472.772 356.382C471.94 355.947 471.025 355.609 470.028 355.369C469.001 354.769 468.168 354.334 467.53 354.063C466.892 353.792 466.434 353.505 466.155 353.204C465.292 352.41 464.763 351.93 464.568 351.766C464.484 351.629 464.387 351.547 464.276 351.52C463.329 350.588 462.064 349.756 460.483 349.023C457.955 347.358 455.44 345.638 452.938 343.863C450.574 342.003 448.291 340.046 446.091 337.992C442.803 334.62 439.884 330.928 437.336 326.915C434.815 322.79 432.529 318.664 430.477 314.536C430.252 314.013 429.717 312.829 428.873 310.985C428.028 309.14 427.087 307.214 426.048 305.205C425.035 303.086 424.107 301.104 423.263 299.26C422.418 297.415 421.87 296.287 421.618 295.874C421.587 295.515 421.415 294.771 421.102 293.64C420.815 292.399 420.445 291.02 419.99 289.504C419.646 288.015 419.289 286.581 418.918 285.202C418.685 283.74 418.469 282.692 418.27 282.058C418.156 281.561 418.026 280.885 417.88 280.03C417.762 279.064 417.712 278.055 417.731 277.005C417.582 275.68 417.406 274.466 417.203 273.362C417.138 272.174 417.117 271.29 417.14 270.71C417.071 269.052 416.983 266.745 416.875 263.79C416.878 260.86 416.868 257.987 416.845 255.168C416.822 252.35 416.829 249.89 416.867 247.79C416.931 245.579 416.977 244.418 417.004 244.307C417.503 241.263 417.975 238.095 418.417 234.803C418.997 231.427 419.714 227.967 420.569 224.422C421.852 219.106 423.573 213.427 425.734 207.385Z" fill="#F29200"/>
<rect x="214" y="2" width="289" height="443" rx="29" fill="#F29200"/>
<path d="M256.986 204.623C257.214 204.395 257.499 203.37 257.841 201.547C258.183 199.61 258.581 196.648 259.037 192.66C259.151 190.382 259.379 188.217 259.721 186.166C260.062 184.001 260.518 182.007 261.088 180.185C261.202 180.071 261.43 179.558 261.771 178.646C262.113 177.735 262.455 176.767 262.797 175.741C263.253 174.602 263.651 173.576 263.993 172.665C264.335 171.754 264.563 171.184 264.677 170.956C264.791 170.5 265.019 169.589 265.36 168.222C265.816 166.741 266.272 165.202 266.728 163.607C267.183 162.012 267.582 160.531 267.924 159.164C268.38 157.683 268.664 156.771 268.778 156.43C269.462 153.809 270.715 151.36 272.538 149.081C274.361 146.688 276.07 144.353 277.665 142.074L280.229 138.827C285.014 132.219 290.425 126.238 296.464 120.883C302.616 115.528 309.224 111.028 316.288 107.382C323.352 103.736 330.814 100.945 338.676 99.0078C346.537 96.957 354.569 95.9316 362.772 95.9316C368.925 95.9316 374.735 96.2165 380.204 96.7861C385.673 97.3558 390.971 98.2103 396.098 99.3496C401.339 100.375 406.522 101.685 411.649 103.28C416.776 104.875 422.188 106.755 427.885 108.92H429.936C431.645 108.92 433.069 108.293 434.208 107.04C435.347 105.673 436.259 104.249 436.942 102.768C437.854 101.173 438.936 99.6344 440.189 98.1533C441.557 96.6722 443.55 95.9316 446.171 95.9316C447.652 95.9316 448.905 96.3304 449.931 97.1279C450.956 97.9255 451.754 98.9508 452.323 100.204C453.007 101.457 453.52 102.825 453.861 104.306C454.203 105.673 454.374 106.983 454.374 108.236C454.26 108.464 454.203 108.692 454.203 108.92C454.089 109.148 454.032 109.433 454.032 109.774C454.032 110.002 453.975 110.23 453.861 110.458C453.633 110.8 453.406 111.256 453.178 111.825C453.178 112.167 453.064 112.794 452.836 113.705C452.722 114.503 452.665 115.357 452.665 116.269C452.437 117.864 452.209 119.459 451.981 121.054C451.868 122.649 451.697 123.902 451.469 124.813V128.402C452.494 134.896 453.235 141.505 453.69 148.227C454.146 154.949 454.374 161.557 454.374 168.051V175.399C453.804 176.197 453.007 176.938 451.981 177.621C450.956 178.305 449.988 178.646 449.076 178.646C447.709 178.646 446.456 178.134 445.316 177.108C444.177 175.969 443.152 174.602 442.24 173.007C441.443 171.412 440.702 169.703 440.019 167.88C439.449 166.057 438.936 164.348 438.48 162.753C438.025 161.5 437.626 160.474 437.284 159.677C437.056 158.765 436.828 158.025 436.601 157.455C436.487 157.227 436.145 156.715 435.575 155.917C435.119 155.119 434.55 154.265 433.866 153.354C433.297 152.442 432.784 151.645 432.328 150.961C431.872 150.163 431.645 149.651 431.645 149.423C431.303 149.081 430.676 148.17 429.765 146.688C428.853 145.207 427.885 143.669 426.859 142.074C425.834 140.365 424.866 138.77 423.954 137.289C423.043 135.808 422.53 134.84 422.416 134.384C421.732 133.928 421.334 133.643 421.22 133.529C421.106 133.415 421.049 133.074 421.049 132.504C419.112 131.706 417.517 130.624 416.264 129.257C411.365 125.725 406.465 122.364 401.566 119.174C396.781 115.984 391.426 113.762 385.502 112.509H380.204C379.976 112.509 379.634 112.452 379.179 112.338C378.837 112.224 378.381 112.053 377.812 111.825C377.584 111.825 377.356 111.825 377.128 111.825C377.014 111.711 376.729 111.654 376.273 111.654C375.932 111.54 375.419 111.483 374.735 111.483C374.052 111.369 373.026 111.199 371.659 110.971C367.444 110.971 363.456 111.369 359.696 112.167C355.937 112.851 352.12 113.819 348.246 115.072C347.904 115.186 347.506 115.3 347.05 115.414C346.708 115.528 346.366 115.642 346.024 115.756C345.797 115.87 345.569 115.927 345.341 115.927C344.543 116.155 344.031 116.269 343.803 116.269C343.689 116.269 343.404 116.269 342.948 116.269C342.493 116.496 342.094 116.667 341.752 116.781C341.524 116.895 340.67 117.237 339.188 117.807C338.619 118.035 337.764 118.718 336.625 119.857C335.486 120.883 333.663 122.535 331.156 124.813C330.587 125.383 329.903 126.01 329.105 126.693C328.422 127.263 327.909 127.662 327.567 127.89C326.998 128.459 326.371 129.029 325.688 129.599C325.004 130.168 324.548 130.567 324.32 130.795C324.092 131.023 323.523 131.592 322.611 132.504C321.814 133.415 321.415 133.928 321.415 134.042C321.187 134.384 320.845 135.067 320.39 136.093C319.934 137.118 319.421 138.201 318.852 139.34C318.282 140.479 317.712 141.505 317.143 142.416C316.687 143.327 316.345 143.897 316.117 144.125C315.889 144.353 315.604 144.752 315.263 145.321C315.035 145.891 314.693 146.461 314.237 147.03C313.668 147.942 312.984 148.967 312.187 150.106C311.389 151.132 310.591 152.157 309.794 153.183C309.11 154.208 308.484 155.119 307.914 155.917C307.458 156.601 307.23 156.999 307.23 157.113C307.117 157.227 307.003 157.569 306.889 158.139C306.775 158.594 306.661 159.164 306.547 159.848C306.433 160.417 306.319 161.044 306.205 161.728C306.091 162.297 306.034 162.639 306.034 162.753C305.806 162.981 305.408 163.664 304.838 164.804C304.382 165.943 303.812 167.196 303.129 168.563C302.559 169.931 301.99 171.184 301.42 172.323C300.964 173.463 300.736 174.203 300.736 174.545C300.395 175.115 300.167 175.741 300.053 176.425L299.711 177.792C299.483 178.817 299.141 180.412 298.686 182.577C298.344 184.628 298.002 186.793 297.66 189.071C297.318 191.236 297.034 193.23 296.806 195.053C296.578 196.876 296.464 198.015 296.464 198.471V224.276C296.692 224.504 296.977 225.473 297.318 227.182C297.774 228.777 298.002 230.372 298.002 231.967C298.002 231.511 297.489 234.075 296.464 239.657C297.261 241.366 297.717 243.303 297.831 245.468C298.059 247.519 298.344 249.626 298.686 251.791C298.913 253.5 299.141 255.437 299.369 257.602C299.711 259.652 300.167 261.817 300.736 264.096C301.192 265.919 302.16 268.083 303.642 270.59C305.123 273.096 306.604 275.489 308.085 277.768C308.541 278.451 309.11 279.306 309.794 280.331C310.591 281.356 311.617 283.122 312.87 285.629C314.009 287.908 315.149 290.186 316.288 292.465C317.541 294.63 319.136 296.225 321.073 297.25C321.529 297.478 321.814 297.649 321.928 297.763C322.042 297.763 322.326 297.877 322.782 298.104C323.352 298.446 324.206 299.073 325.346 299.984C326.599 300.896 328.536 302.662 331.156 305.282C332.637 306.877 334.118 308.415 335.6 309.896C337.195 311.264 338.391 312.175 339.188 312.631C339.302 312.631 339.416 312.745 339.53 312.973C339.644 313.201 340.1 313.485 340.897 313.827C340.897 313.941 341.182 314.112 341.752 314.34C342.322 314.568 343.005 314.853 343.803 315.194C344.6 315.422 345.512 315.821 346.537 316.391C347.904 316.96 349.271 317.587 350.639 318.271C352.12 318.84 353.544 319.41 354.911 319.979C356.278 320.549 357.475 321.062 358.5 321.518C359.639 321.859 360.494 322.03 361.063 322.03H371.659C372.115 322.258 372.457 322.429 372.685 322.543C372.912 322.543 373.653 322.771 374.906 323.227H379.35C383.565 323.227 387.781 322.372 391.996 320.663C396.326 318.954 400.484 316.789 404.472 314.169C408.459 311.435 412.162 308.472 415.58 305.282C419.112 301.978 422.131 298.788 424.638 295.712C426.233 293.775 427.372 292.123 428.056 290.756C428.853 289.389 429.651 287.908 430.448 286.312L432.841 281.356C433.297 280.103 433.752 278.907 434.208 277.768C434.778 276.514 435.29 275.204 435.746 273.837C436.771 270.875 437.911 267.912 439.164 264.95C440.417 261.988 441.841 259.026 443.437 256.063C443.892 255.38 445.259 255.038 447.538 255.038C449.475 255.038 450.785 255.437 451.469 256.234C452.152 257.032 453.064 258.399 454.203 260.336V267.685C454.203 273.039 453.861 278.337 453.178 283.578C452.95 286.312 452.722 288.933 452.494 291.439C452.38 293.946 452.323 296.851 452.323 300.155C452.323 300.725 452.38 302.149 452.494 304.428C452.608 306.592 452.779 308.928 453.007 311.435C453.235 313.827 453.406 316.106 453.52 318.271C453.747 320.321 453.975 321.575 454.203 322.03V324.081C454.203 324.879 453.975 325.847 453.52 326.986C453.178 328.126 452.665 329.265 451.981 330.404C451.412 331.43 450.728 332.341 449.931 333.139C449.133 333.822 448.336 334.164 447.538 334.164C445.943 334.164 444.804 333.651 444.12 332.626C443.55 331.601 443.152 330.461 442.924 329.208C442.696 328.98 442.582 328.752 442.582 328.524C442.582 328.297 442.468 328.012 442.24 327.67C442.24 327.328 441.955 326.645 441.386 325.619C440.93 324.594 440.36 323.511 439.677 322.372C439.107 321.119 438.537 320.036 437.968 319.125C437.398 318.1 437.056 317.416 436.942 317.074C436.259 316.618 435.461 316.391 434.55 316.391C432.271 316.391 430.163 317.131 428.227 318.612C426.404 319.979 424.695 321.404 423.1 322.885C422.074 324.024 421.049 325.106 420.023 326.132C419.112 327.043 418.257 327.67 417.46 328.012C417.118 328.012 416.719 328.126 416.264 328.354C415.808 328.467 415.295 328.581 414.726 328.695C414.27 328.809 413.928 328.866 413.7 328.866C412.903 329.778 411.934 330.461 410.795 330.917C409.77 331.259 408.63 331.658 407.377 332.113C406.124 332.569 404.7 333.025 403.104 333.48C401.509 333.822 399.8 334.278 397.978 334.848C395.129 335.531 392.338 336.386 389.604 337.411C386.869 338.323 384.306 339.519 381.913 341C378.837 341.228 375.704 341.399 372.514 341.513C369.324 341.741 366.076 341.854 362.772 341.854C360.152 341.854 357.418 341.741 354.569 341.513C351.835 341.399 349.044 341.228 346.195 341C345.967 340.886 345.512 340.715 344.828 340.487C344.145 340.259 343.404 340.032 342.606 339.804C341.809 339.462 341.068 339.234 340.385 339.12C339.701 338.892 339.188 338.721 338.847 338.607C339.075 338.607 338.676 338.55 337.65 338.437C336.739 338.209 335.771 338.095 334.745 338.095C333.606 337.753 332.694 337.525 332.011 337.411C331.327 337.297 330.814 337.126 330.473 336.898C329.447 336.329 328.821 335.987 328.593 335.873C328.479 335.759 328.365 335.702 328.251 335.702C327.112 335.019 325.688 334.506 323.979 334.164C321.13 333.139 318.282 332.056 315.434 330.917C312.699 329.664 310.022 328.297 307.401 326.815C303.414 324.309 299.711 321.404 296.293 318.1C292.875 314.682 289.685 311.207 286.723 307.675C286.381 307.219 285.583 306.194 284.33 304.599C283.077 303.004 281.71 301.352 280.229 299.643C278.747 297.82 277.38 296.111 276.127 294.516C274.874 292.921 274.076 291.952 273.734 291.61C273.62 291.269 273.279 290.585 272.709 289.56C272.139 288.42 271.456 287.167 270.658 285.8C269.975 284.433 269.291 283.122 268.607 281.869C268.038 280.502 267.582 279.534 267.24 278.964C267.012 278.508 266.728 277.882 266.386 277.084C266.044 276.173 265.759 275.204 265.531 274.179C265.076 272.925 264.62 271.786 264.164 270.761C263.822 269.621 263.594 268.767 263.48 268.197C263.025 266.602 262.398 264.381 261.601 261.532C260.917 258.684 260.233 255.893 259.55 253.158C258.866 250.424 258.297 248.031 257.841 245.98C257.385 243.816 257.157 242.676 257.157 242.562C256.929 239.486 256.645 236.296 256.303 232.992C256.075 229.574 255.961 226.042 255.961 222.396C255.961 216.928 256.303 211.003 256.986 204.623Z" fill="black"/>
<rect x="1" y="102.487" width="289" height="443" rx="29" transform="rotate(-20.3471 1 102.487)" fill="#EEEEEE"/>
<path d="M104.155 280.189C104.287 279.895 104.187 278.835 103.855 277.01C103.483 275.079 102.798 272.17 101.801 268.282C101.094 266.113 100.534 264.009 100.121 261.972C99.6677 259.828 99.3817 257.802 99.2631 255.896C99.3288 255.749 99.3587 255.189 99.3526 254.215C99.3465 253.242 99.3201 252.215 99.2734 251.136C99.2924 249.909 99.2988 248.808 99.2928 247.835C99.2867 246.862 99.2962 246.248 99.3213 245.995C99.265 245.528 99.1525 244.595 98.9838 243.196C98.8808 241.65 98.7575 240.051 98.6138 238.398C98.4701 236.745 98.3139 235.22 98.1452 233.82C98.0422 232.274 97.9829 231.321 97.9673 230.961C97.6705 228.269 97.9668 225.534 98.8562 222.755C99.705 219.869 100.468 217.077 101.144 214.379L102.38 210.431C104.491 202.55 107.411 195.031 111.14 187.873C114.976 180.675 119.542 174.113 124.839 168.185C130.136 162.258 136.11 156.987 142.763 152.372C149.374 147.65 156.511 143.825 164.174 140.897C169.921 138.7 175.45 136.892 180.762 135.472C186.074 134.052 191.328 132.959 196.523 132.194C201.785 131.281 207.095 130.654 212.454 130.314C217.812 129.974 223.539 129.798 229.633 129.787L231.548 129.055C233.145 128.445 234.251 127.351 234.868 125.773C235.444 124.09 235.788 122.434 235.897 120.806C236.179 118.991 236.641 117.168 237.283 115.337C238.032 113.465 239.63 112.062 242.078 111.127C243.461 110.598 244.774 110.523 246.017 110.902C247.259 111.281 248.37 111.954 249.35 112.921C250.436 113.848 251.403 114.942 252.251 116.204C253.058 117.359 253.685 118.522 254.133 119.692C254.108 119.946 254.136 120.179 254.217 120.392C254.192 120.646 254.24 120.932 254.362 121.251C254.444 121.464 254.472 121.697 254.447 121.951C254.356 122.351 254.306 122.858 254.296 123.472C254.418 123.791 254.536 124.417 254.648 125.35C254.826 126.136 255.078 126.954 255.404 127.806C255.76 129.377 256.117 130.948 256.473 132.519C256.936 134.05 257.224 135.282 257.336 136.215L258.617 139.567C261.893 145.267 264.944 151.176 267.769 157.292C270.594 163.409 273.166 169.5 275.484 175.566L278.107 182.431C277.86 183.379 277.379 184.356 276.665 185.36C275.952 186.365 275.169 187.03 274.318 187.355C273.04 187.843 271.687 187.812 270.256 187.26C268.785 186.603 267.34 185.692 265.919 184.527C264.604 183.322 263.303 181.99 262.013 180.531C260.831 179.032 259.742 177.618 258.747 176.291C257.873 175.283 257.135 174.467 256.531 173.844C255.993 173.074 255.516 172.464 255.099 172.013C254.912 171.841 254.409 171.484 253.592 170.942C252.882 170.36 252.045 169.765 251.081 169.158C250.224 168.51 249.46 167.948 248.79 167.472C248.08 166.89 247.684 166.492 247.603 166.279C247.161 166.082 246.251 165.454 244.871 164.396C243.49 163.338 242.037 162.247 240.51 161.123C238.942 159.892 237.468 158.748 236.088 157.69C234.707 156.632 233.883 155.91 233.614 155.525C232.813 155.343 232.338 155.22 232.191 155.154C232.044 155.088 231.869 154.789 231.666 154.257C229.572 154.203 227.695 153.762 226.037 152.932C220.2 151.382 214.423 149.991 208.708 148.76C203.1 147.488 197.305 147.324 191.323 148.268L186.374 150.159C186.161 150.241 185.822 150.309 185.355 150.366C184.995 150.381 184.509 150.384 183.895 150.375C183.682 150.456 183.47 150.537 183.257 150.619C183.11 150.553 182.823 150.601 182.398 150.764C182.038 150.78 181.538 150.909 180.9 151.153C180.221 151.291 179.202 151.497 177.843 151.773C173.905 153.277 170.323 155.073 167.096 157.16C163.827 159.141 160.608 161.408 157.437 163.962C157.158 164.19 156.826 164.439 156.441 164.708C156.163 164.936 155.884 165.165 155.605 165.393C155.433 165.581 155.241 165.715 155.028 165.797C154.364 166.294 153.926 166.584 153.713 166.665C153.607 166.706 153.341 166.807 152.915 166.97C152.571 167.346 152.259 167.648 151.98 167.876C151.808 168.064 151.132 168.688 149.952 169.749C149.501 170.165 148.947 171.109 148.289 172.58C147.591 173.944 146.478 176.138 144.95 179.161C144.621 179.897 144.206 180.726 143.705 181.649C143.27 182.426 142.934 182.981 142.696 183.316C142.367 184.051 141.985 184.807 141.55 185.583C141.114 186.36 140.831 186.895 140.7 187.189C140.568 187.483 140.239 188.219 139.713 189.395C139.294 190.531 139.104 191.153 139.145 191.259C139.054 191.66 138.979 192.42 138.919 193.541C138.859 194.661 138.767 195.855 138.641 197.123C138.516 198.391 138.35 199.552 138.143 200.607C138.043 201.621 137.927 202.275 137.795 202.569C137.664 202.863 137.54 203.337 137.424 203.991C137.414 204.605 137.299 205.259 137.076 205.954C136.869 207.009 136.597 208.211 136.259 209.559C135.88 210.802 135.501 212.045 135.122 213.287C134.849 214.489 134.589 215.564 134.342 216.512C134.16 217.314 134.09 217.767 134.13 217.874C134.064 218.021 134.08 218.381 134.177 218.954C134.233 219.42 134.33 219.993 134.468 220.672C134.565 221.245 134.682 221.871 134.819 222.55C134.916 223.123 134.985 223.463 135.026 223.569C134.894 223.863 134.766 224.644 134.64 225.912C134.621 227.139 134.537 228.513 134.386 230.034C134.342 231.514 134.257 232.888 134.132 234.156C134.113 235.383 134.164 236.156 134.286 236.475C134.17 237.129 134.181 237.796 134.319 238.475L134.488 239.874C134.641 240.914 134.891 242.526 135.238 244.71C135.651 246.748 136.104 248.892 136.598 251.143C137.052 253.287 137.497 255.251 137.935 257.035C138.373 258.819 138.673 259.924 138.836 260.35L148.047 284.455C148.342 284.587 148.953 285.39 149.883 286.864C150.878 288.192 151.66 289.6 152.229 291.09C152.067 290.664 152.503 293.242 153.538 298.823C154.893 300.135 156.01 301.781 156.889 303.763C157.834 305.597 158.852 307.464 159.944 309.364C160.767 310.879 161.672 312.607 162.657 314.548C163.708 316.342 164.907 318.201 166.252 320.126C167.329 321.666 169.006 323.343 171.284 325.156C173.563 326.968 175.8 328.674 177.997 330.274C178.667 330.75 179.504 331.345 180.509 332.059C181.62 332.732 183.208 334.016 185.273 335.91C187.151 337.631 189.029 339.353 190.906 341.075C192.85 342.65 194.909 343.57 197.084 343.837C197.591 343.887 197.918 343.945 198.066 344.011C198.172 343.97 198.479 343.975 198.986 344.025C199.64 344.141 200.662 344.421 202.051 344.866C203.547 345.27 205.987 346.228 209.37 347.741C211.323 348.702 213.256 349.61 215.168 350.465C217.146 351.173 218.589 351.597 219.496 351.738C219.603 351.697 219.75 351.763 219.938 351.935C220.126 352.107 220.653 352.211 221.52 352.245C221.561 352.352 221.888 352.41 222.501 352.419C223.115 352.429 223.855 352.451 224.722 352.486C225.548 352.414 226.542 352.461 227.703 352.627C229.184 352.671 230.684 352.768 232.205 352.919C233.792 352.922 235.326 352.946 236.806 352.99C238.287 353.034 239.587 353.086 240.708 353.146C241.894 353.058 242.753 352.913 243.286 352.71L253.183 348.927C253.69 348.978 254.071 349.015 254.324 349.04C254.537 348.959 255.31 348.908 256.643 348.886L260.794 347.3C264.732 345.795 268.365 343.492 271.692 340.391C275.126 337.249 278.238 333.743 281.028 329.871C283.777 325.894 286.178 321.805 288.232 317.605C290.352 313.258 292.034 309.2 293.277 305.432C294.075 303.053 294.55 301.103 294.701 299.582C294.957 298.02 295.174 296.352 295.349 294.577L295.815 289.094C295.794 287.76 295.792 286.48 295.811 285.253C295.896 283.879 295.907 282.472 295.845 281.033C295.745 277.899 295.752 274.726 295.865 271.511C295.979 268.297 296.252 265.021 296.684 261.685C296.866 260.884 298.021 260.076 300.15 259.263C301.959 258.572 303.325 258.476 304.248 258.977C305.172 259.478 306.511 260.43 308.267 261.833L310.89 268.697C312.801 273.699 314.373 278.77 315.605 283.91C316.369 286.545 317.091 289.074 317.773 291.497C318.561 293.879 319.545 296.613 320.725 299.7C320.928 300.232 321.489 301.542 322.409 303.63C323.288 305.611 324.282 307.732 325.389 309.992C326.456 312.146 327.429 314.213 328.308 316.194C329.253 318.029 329.914 319.118 330.289 319.463L331.021 321.378C331.306 322.123 331.439 323.109 331.42 324.336C331.507 325.522 331.435 326.77 331.203 328.078C331.037 329.239 330.724 330.335 330.263 331.364C329.762 332.287 329.139 332.891 328.394 333.176C326.904 333.745 325.657 333.673 324.653 332.959C323.754 332.205 322.975 331.283 322.315 330.194C322.021 330.062 321.833 329.89 321.752 329.677C321.67 329.464 321.462 329.239 321.127 329.001C321.005 328.682 320.495 328.145 319.597 327.39C318.805 326.595 317.887 325.787 316.842 324.967C315.862 324 314.944 323.192 314.086 322.544C313.188 321.79 312.625 321.273 312.396 320.994C311.595 320.813 310.769 320.885 309.917 321.21C307.789 322.023 306.084 323.467 304.804 325.542C303.589 327.47 302.501 329.411 301.54 331.363C300.989 332.794 300.417 334.171 299.825 335.495C299.299 336.671 298.725 337.562 298.102 338.166C297.782 338.288 297.451 338.537 297.106 338.912C296.721 339.181 296.283 339.471 295.792 339.78C295.406 340.049 295.108 340.225 294.895 340.306C294.475 341.442 293.814 342.426 292.913 343.259C292.077 343.944 291.155 344.723 290.147 345.596C289.139 346.469 287.971 347.403 286.644 348.399C285.276 349.287 283.842 350.323 282.343 351.506C279.926 353.161 277.624 354.956 275.436 356.89C273.207 358.717 271.239 360.75 269.533 362.987C266.741 364.298 263.875 365.576 260.936 366.821C258.037 368.173 255.045 369.438 251.958 370.618C249.511 371.553 246.916 372.423 244.174 373.227C241.579 374.096 238.91 374.933 236.168 375.737C235.915 375.712 235.428 375.715 234.708 375.746C233.988 375.777 233.215 375.829 232.389 375.901C231.522 375.866 230.749 375.918 230.07 376.055C229.35 376.086 228.81 376.11 228.45 376.125C228.663 376.044 228.27 376.133 227.271 376.393C226.339 376.505 225.393 376.744 224.435 377.11C223.249 377.198 222.316 377.31 221.637 377.448C220.958 377.586 220.418 377.609 220.017 377.518C218.856 377.352 218.149 377.256 217.895 377.231C217.748 377.166 217.621 377.153 217.515 377.194C216.207 376.962 214.693 376.991 212.975 377.282C209.948 377.341 206.901 377.347 203.834 377.299C200.832 377.104 197.843 376.783 194.867 376.335C190.247 375.417 185.751 374.025 181.379 372.159C176.966 370.186 172.746 368.079 168.718 365.837C168.236 365.533 167.125 364.86 165.385 363.817C163.645 362.775 161.778 361.72 159.785 360.652C157.75 359.478 155.863 358.369 154.123 357.327C152.383 356.284 151.292 355.664 150.851 355.467C150.623 355.188 150.059 354.672 149.161 353.917C148.222 353.056 147.136 352.13 145.903 351.137C144.777 350.104 143.671 349.124 142.585 348.198C141.564 347.124 140.793 346.382 140.27 345.972C139.895 345.627 139.405 345.144 138.801 344.521C138.157 343.791 137.545 342.988 136.966 342.112C136.093 341.104 135.26 340.202 134.469 339.407C133.743 338.465 133.225 337.748 132.915 337.257C131.92 335.929 130.542 334.078 128.78 331.702C127.125 329.285 125.49 326.922 123.875 324.611C122.26 322.301 120.874 320.27 119.716 318.517C118.518 316.657 117.898 315.674 117.858 315.568C116.547 312.776 115.142 309.897 113.643 306.933C112.21 303.822 110.843 300.563 109.542 297.157C107.59 292.049 105.794 286.393 104.155 280.189Z" fill="#F29200"/>
</svg>
