<svg width="712" height="518" viewBox="0 0 712 518" fill="none" xmlns="http://www.w3.org/2000/svg">
<rect x="430.627" width="289" height="443" rx="29" transform="rotate(13.4754 430.627 0)" fill="#1D1D1D"/>
<path d="M425.13 207.385C425.405 207.217 425.922 206.287 426.682 204.595C427.468 202.792 428.551 200.006 429.929 196.236C430.574 194.048 431.303 191.997 432.116 190.084C432.956 188.059 433.866 186.228 434.848 184.59C434.985 184.506 435.327 184.061 435.873 183.255C436.419 182.449 436.978 181.587 437.551 180.671C438.261 179.67 438.889 178.767 439.435 177.961C439.981 177.155 440.336 176.655 440.5 176.46C440.718 176.044 441.153 175.211 441.806 173.962C442.596 172.629 443.4 171.241 444.217 169.797C445.034 168.353 445.769 167.007 446.422 165.758C447.212 164.425 447.703 163.606 447.894 163.3C449.173 160.913 450.965 158.826 453.272 157.038C455.605 155.14 457.814 153.27 459.899 151.429L463.152 148.873C469.353 143.571 476.017 139.026 483.142 135.236C490.379 131.473 497.858 128.648 505.58 126.76C513.301 124.872 521.211 123.908 529.307 123.869C537.43 123.719 545.479 124.605 553.453 126.529C559.434 127.971 565.016 129.611 570.198 131.447C575.381 133.283 580.331 135.356 585.048 137.665C589.902 139.891 594.634 142.38 599.244 145.133C603.854 147.886 608.674 150.982 613.705 154.422L615.698 154.903C617.359 155.304 618.891 155.029 620.292 154.078C621.72 153.016 622.94 151.845 623.952 150.565C625.212 149.229 626.625 147.987 628.191 146.841C629.867 145.722 631.979 145.469 634.526 146.084C635.966 146.431 637.091 147.113 637.901 148.128C638.711 149.144 639.245 150.328 639.505 151.68C639.876 153.058 640.054 154.508 640.039 156.028C640.051 157.437 639.909 158.751 639.616 159.969C639.451 160.164 639.343 160.372 639.289 160.594C639.125 160.788 639.003 161.052 638.923 161.384C638.869 161.606 638.76 161.814 638.596 162.009C638.295 162.287 637.966 162.677 637.611 163.177C637.531 163.51 637.273 164.092 636.838 164.925C636.54 165.673 636.285 166.491 636.071 167.377C635.475 168.874 634.88 170.371 634.284 171.868C633.8 173.392 633.34 174.57 632.904 175.403L632.063 178.892C631.537 185.445 630.707 192.043 629.574 198.684C628.441 205.326 627.113 211.803 625.59 218.116L623.867 225.26C623.126 225.901 622.177 226.434 621.02 226.858C619.863 227.283 618.842 227.388 617.956 227.174C616.627 226.853 615.528 226.061 614.661 224.797C613.821 223.422 613.145 221.853 612.633 220.089C612.231 218.351 611.912 216.516 611.675 214.584C611.549 212.678 611.451 210.896 611.382 209.239C611.233 207.914 611.086 206.824 610.94 205.968C610.933 205.029 610.885 204.255 610.797 203.648C610.739 203.4 610.527 202.821 610.161 201.912C609.905 201.03 609.551 200.066 609.1 199.02C608.76 198 608.449 197.105 608.166 196.333C607.91 195.451 607.809 194.899 607.862 194.678C607.61 194.265 607.215 193.232 606.676 191.579C606.137 189.925 605.556 188.203 604.934 186.412C604.338 184.51 603.77 182.732 603.231 181.079C602.693 179.425 602.421 178.364 602.417 177.894C601.86 177.291 601.539 176.92 601.455 176.783C601.371 176.645 601.396 176.3 601.529 175.746C599.833 174.517 598.537 173.09 597.639 171.467C593.704 166.885 589.73 162.469 585.716 158.219C581.812 153.996 577.127 150.581 571.662 147.973L566.512 146.731C566.29 146.678 565.971 146.542 565.555 146.324C565.249 146.134 564.846 145.861 564.346 145.505C564.125 145.452 563.903 145.399 563.682 145.345C563.597 145.208 563.334 145.086 562.891 144.979C562.585 144.788 562.1 144.612 561.436 144.452C560.798 144.181 559.841 143.774 558.566 143.232C554.468 142.244 550.498 141.696 546.656 141.59C542.84 141.373 538.903 141.419 534.844 141.729C534.485 141.76 534.07 141.777 533.6 141.781C533.241 141.812 532.882 141.842 532.524 141.873C532.275 141.93 532.04 141.932 531.819 141.879C530.99 141.913 530.465 141.904 530.244 141.851C530.133 141.824 529.856 141.757 529.413 141.65C528.916 141.765 528.489 141.837 528.13 141.868C527.881 141.925 526.971 142.057 525.397 142.264C524.79 142.352 523.799 142.816 522.424 143.656C521.076 144.386 518.917 145.564 515.946 147.192C515.259 147.612 514.447 148.061 513.512 148.538C512.713 148.932 512.122 149.199 511.736 149.341C511.049 149.761 510.306 150.168 509.508 150.561C508.71 150.955 508.173 151.236 507.898 151.404C507.623 151.572 506.936 151.992 505.836 152.664C504.847 153.363 504.339 153.768 504.312 153.879C504.011 154.158 503.518 154.742 502.835 155.632C502.151 156.522 501.399 157.454 500.578 158.428C499.757 159.402 498.963 160.265 498.196 161.018C497.539 161.797 497.073 162.271 496.798 162.439C496.523 162.607 496.153 162.928 495.687 163.401C495.332 163.902 494.866 164.375 494.289 164.822C493.522 165.575 492.617 166.411 491.574 167.332C490.559 168.141 489.543 168.951 488.527 169.761C487.622 170.598 486.799 171.337 486.059 171.978C485.455 172.536 485.14 172.87 485.114 172.981C484.976 173.065 484.785 173.371 484.541 173.898C484.323 174.314 484.079 174.841 483.808 175.479C483.564 176.006 483.306 176.588 483.035 177.226C482.79 177.753 482.655 178.072 482.628 178.183C482.353 178.351 481.805 178.922 480.984 179.896C480.274 180.897 479.427 181.981 478.442 183.15C477.567 184.346 476.72 185.431 475.899 186.404C475.188 187.405 474.793 188.072 474.713 188.404C474.247 188.878 473.879 189.433 473.608 190.071L472.955 191.32C472.493 192.263 471.787 193.734 470.836 195.731C470.023 197.645 469.183 199.669 468.317 201.804C467.477 203.828 466.732 205.7 466.083 207.418C465.434 209.137 465.056 210.218 464.95 210.661L458.899 235.747C459.067 236.022 459.117 237.03 459.048 238.772C459.117 240.429 458.965 242.033 458.591 243.584C458.698 243.141 457.598 245.513 455.292 250.699C455.667 252.548 455.656 254.537 455.259 256.668C454.999 258.715 454.782 260.831 454.607 263.016C454.428 264.73 454.195 266.667 453.909 268.824C453.76 270.898 453.696 273.109 453.715 275.458C453.731 277.337 454.165 279.669 455.017 282.452C455.869 285.236 456.748 287.91 457.653 290.472C457.936 291.243 458.289 292.208 458.713 293.365C459.248 294.548 459.831 296.506 460.462 299.236C461.035 301.718 461.608 304.201 462.181 306.683C462.892 309.081 464.069 311.006 465.711 312.457C466.101 312.785 466.337 313.018 466.422 313.155C466.532 313.182 466.782 313.36 467.172 313.688C467.646 314.154 468.329 314.963 469.223 316.117C470.228 317.297 471.697 319.467 473.63 322.629C474.695 324.527 475.775 326.37 476.867 328.157C478.097 329.86 479.046 331.026 479.715 331.656C479.826 331.683 479.91 331.821 479.967 332.069C480.024 332.317 480.4 332.701 481.096 333.22C481.069 333.331 481.306 333.564 481.806 333.919C482.306 334.274 482.904 334.711 483.599 335.23C484.321 335.639 485.114 336.24 485.977 337.034C487.172 337.909 488.355 338.839 489.523 339.824C490.83 340.725 492.08 341.612 493.276 342.487C494.471 343.361 495.514 344.14 496.404 344.824C497.432 345.423 498.222 345.789 498.776 345.923L509.076 348.408C509.466 348.736 509.758 348.982 509.953 349.146C510.174 349.2 510.841 349.595 511.952 350.332L516.272 351.374C520.37 352.362 524.668 352.52 529.167 351.847C533.776 351.201 538.326 350.072 542.817 348.459C547.335 346.736 551.629 344.725 555.7 342.425C559.908 340.041 563.591 337.648 566.749 335.245C568.754 333.737 570.249 332.398 571.234 331.229C572.33 330.087 573.452 328.834 574.601 327.47L578.089 323.214C578.826 322.102 579.55 321.046 580.26 320.045C581.108 318.961 581.913 317.807 582.677 316.585C584.368 313.946 586.17 311.333 588.083 308.747C589.996 306.162 592.075 303.616 594.32 301.11C594.924 300.553 596.333 300.541 598.548 301.075C600.431 301.529 601.611 302.224 602.089 303.16C602.566 304.095 603.132 305.638 603.785 307.788L602.062 314.932C600.806 320.137 599.232 325.207 597.338 330.142C596.476 332.747 595.64 335.241 594.831 337.624C594.132 340.034 593.395 342.845 592.621 346.057C592.487 346.61 592.209 348.008 591.785 350.25C591.388 352.381 591.007 354.692 590.64 357.182C590.301 359.561 589.933 361.816 589.536 363.947C589.277 365.994 589.204 367.266 589.319 367.763L588.838 369.756C588.651 370.531 588.202 371.419 587.492 372.42C586.893 373.448 586.127 374.435 585.196 375.382C584.401 376.245 583.523 376.971 582.561 377.559C581.625 378.037 580.77 378.182 579.995 377.995C578.444 377.621 577.457 376.856 577.033 375.699C576.719 374.568 576.599 373.367 576.671 372.095C576.503 371.82 576.446 371.572 576.499 371.351C576.552 371.129 576.509 370.826 576.367 370.44C576.447 370.108 576.331 369.376 576.017 368.246C575.815 367.142 575.515 365.956 575.117 364.689C574.857 363.337 574.557 362.151 574.217 361.131C573.904 360.001 573.732 359.256 573.701 358.897C573.144 358.294 572.422 357.885 571.536 357.672C569.321 357.137 567.098 357.363 564.868 358.349C562.775 359.25 560.78 360.234 558.882 361.3C557.618 362.167 556.368 362.979 555.13 363.735C554.031 364.408 553.053 364.816 552.198 364.962C551.865 364.881 551.451 364.899 550.954 365.013C550.485 365.017 549.96 365.008 549.379 364.985C548.909 364.989 548.564 364.964 548.342 364.911C547.353 365.61 546.252 366.047 545.037 366.223C543.96 366.315 542.759 366.435 541.434 366.585C540.109 366.734 538.617 366.843 536.96 366.912C535.329 366.87 533.561 366.912 531.655 367.039C528.726 367.035 525.812 367.212 522.914 367.567C520.042 367.812 517.269 368.374 514.596 369.253C511.552 368.753 508.467 368.184 505.339 367.547C502.184 367.021 499.001 366.37 495.789 365.595C493.241 364.981 490.61 364.229 487.895 363.34C485.263 362.588 482.59 361.767 479.874 360.878C479.679 360.713 479.276 360.44 478.665 360.059C478.054 359.677 477.388 359.282 476.666 358.873C475.971 358.354 475.304 357.959 474.666 357.688C474.055 357.306 473.597 357.02 473.291 356.829C473.513 356.882 473.139 356.733 472.169 356.382C471.336 355.947 470.421 355.609 469.424 355.369C468.397 354.769 467.564 354.334 466.927 354.063C466.289 353.792 465.83 353.505 465.552 353.204C464.688 352.41 464.159 351.93 463.965 351.766C463.881 351.629 463.783 351.547 463.672 351.52C462.725 350.588 461.461 349.756 459.88 349.023C457.351 347.358 454.836 345.638 452.334 343.863C449.97 342.003 447.688 340.046 445.488 337.992C442.199 334.62 439.281 330.928 436.733 326.915C434.212 322.79 431.925 318.664 429.874 314.536C429.648 314.013 429.113 312.829 428.269 310.985C427.425 309.14 426.483 307.214 425.444 305.205C424.432 303.086 423.503 301.104 422.659 299.26C421.815 297.415 421.266 296.287 421.014 295.874C420.984 295.515 420.812 294.771 420.498 293.64C420.212 292.399 419.841 291.02 419.386 289.504C419.042 288.015 418.685 286.581 418.314 285.202C418.081 283.74 417.865 282.692 417.667 282.058C417.552 281.561 417.422 280.885 417.277 280.03C417.158 279.064 417.108 278.055 417.127 277.005C416.978 275.68 416.802 274.466 416.6 273.362C416.535 272.174 416.513 271.29 416.536 270.71C416.467 269.052 416.379 266.745 416.272 263.79C416.275 260.86 416.265 257.987 416.242 255.168C416.218 252.35 416.225 249.89 416.263 247.79C416.328 245.579 416.373 244.418 416.4 244.307C416.9 241.263 417.371 238.095 417.814 234.803C418.393 231.427 419.111 227.967 419.966 224.422C421.248 219.106 422.97 213.427 425.13 207.385Z" fill="#F29200"/>
<rect x="213.396" y="2" width="289" height="443" rx="29" fill="#F29200"/>
<path d="M256.383 204.623C256.611 204.395 256.896 203.37 257.237 201.547C257.579 199.61 257.978 196.648 258.434 192.66C258.548 190.382 258.775 188.217 259.117 186.166C259.459 184.001 259.915 182.007 260.484 180.185C260.598 180.071 260.826 179.558 261.168 178.646C261.51 177.735 261.852 176.767 262.193 175.741C262.649 174.602 263.048 173.576 263.39 172.665C263.731 171.754 263.959 171.184 264.073 170.956C264.187 170.5 264.415 169.589 264.757 168.222C265.213 166.741 265.668 165.202 266.124 163.607C266.58 162.012 266.979 160.531 267.32 159.164C267.776 157.683 268.061 156.771 268.175 156.43C268.858 153.809 270.112 151.36 271.935 149.081C273.757 146.688 275.466 144.353 277.062 142.074L279.625 138.827C284.41 132.219 289.822 126.238 295.86 120.883C302.013 115.528 308.621 111.028 315.685 107.382C322.748 103.736 330.211 100.945 338.072 99.0078C345.934 96.957 353.966 95.9316 362.169 95.9316C368.321 95.9316 374.132 96.2165 379.601 96.7861C385.069 97.3558 390.367 98.2103 395.494 99.3496C400.735 100.375 405.919 101.685 411.046 103.28C416.173 104.875 421.585 106.755 427.281 108.92H429.332C431.041 108.92 432.465 108.293 433.604 107.04C434.744 105.673 435.655 104.249 436.339 102.768C437.25 101.173 438.333 99.6344 439.586 98.1533C440.953 96.6722 442.947 95.9316 445.567 95.9316C447.049 95.9316 448.302 96.3304 449.327 97.1279C450.353 97.9255 451.15 98.9508 451.72 100.204C452.403 101.457 452.916 102.825 453.258 104.306C453.6 105.673 453.771 106.983 453.771 108.236C453.657 108.464 453.6 108.692 453.6 108.92C453.486 109.148 453.429 109.433 453.429 109.774C453.429 110.002 453.372 110.23 453.258 110.458C453.03 110.8 452.802 111.256 452.574 111.825C452.574 112.167 452.46 112.794 452.232 113.705C452.118 114.503 452.062 115.357 452.062 116.269C451.834 117.864 451.606 119.459 451.378 121.054C451.264 122.649 451.093 123.902 450.865 124.813V128.402C451.891 134.896 452.631 141.505 453.087 148.227C453.543 154.949 453.771 161.557 453.771 168.051V175.399C453.201 176.197 452.403 176.938 451.378 177.621C450.353 178.305 449.384 178.646 448.473 178.646C447.105 178.646 445.852 178.134 444.713 177.108C443.574 175.969 442.548 174.602 441.637 173.007C440.839 171.412 440.099 169.703 439.415 167.88C438.845 166.057 438.333 164.348 437.877 162.753C437.421 161.5 437.022 160.474 436.681 159.677C436.453 158.765 436.225 158.025 435.997 157.455C435.883 157.227 435.541 156.715 434.972 155.917C434.516 155.119 433.946 154.265 433.263 153.354C432.693 152.442 432.18 151.645 431.725 150.961C431.269 150.163 431.041 149.651 431.041 149.423C430.699 149.081 430.073 148.17 429.161 146.688C428.25 145.207 427.281 143.669 426.256 142.074C425.23 140.365 424.262 138.77 423.351 137.289C422.439 135.808 421.926 134.84 421.812 134.384C421.129 133.928 420.73 133.643 420.616 133.529C420.502 133.415 420.445 133.074 420.445 132.504C418.508 131.706 416.913 130.624 415.66 129.257C410.761 125.725 405.862 122.364 400.963 119.174C396.178 115.984 390.823 113.762 384.898 112.509H379.601C379.373 112.509 379.031 112.452 378.575 112.338C378.233 112.224 377.778 112.053 377.208 111.825C376.98 111.825 376.752 111.825 376.524 111.825C376.41 111.711 376.126 111.654 375.67 111.654C375.328 111.54 374.815 111.483 374.132 111.483C373.448 111.369 372.423 111.199 371.056 110.971C366.84 110.971 362.853 111.369 359.093 112.167C355.333 112.851 351.516 113.819 347.643 115.072C347.301 115.186 346.902 115.3 346.446 115.414C346.104 115.528 345.763 115.642 345.421 115.756C345.193 115.87 344.965 115.927 344.737 115.927C343.94 116.155 343.427 116.269 343.199 116.269C343.085 116.269 342.8 116.269 342.345 116.269C341.889 116.496 341.49 116.667 341.148 116.781C340.921 116.895 340.066 117.237 338.585 117.807C338.015 118.035 337.161 118.718 336.021 119.857C334.882 120.883 333.059 122.535 330.553 124.813C329.983 125.383 329.299 126.01 328.502 126.693C327.818 127.263 327.306 127.662 326.964 127.89C326.394 128.459 325.768 129.029 325.084 129.599C324.4 130.168 323.945 130.567 323.717 130.795C323.489 131.023 322.919 131.592 322.008 132.504C321.21 133.415 320.812 133.928 320.812 134.042C320.584 134.384 320.242 135.067 319.786 136.093C319.33 137.118 318.818 138.201 318.248 139.34C317.678 140.479 317.109 141.505 316.539 142.416C316.083 143.327 315.742 143.897 315.514 144.125C315.286 144.353 315.001 144.752 314.659 145.321C314.431 145.891 314.09 146.461 313.634 147.03C313.064 147.942 312.381 148.967 311.583 150.106C310.785 151.132 309.988 152.157 309.19 153.183C308.507 154.208 307.88 155.119 307.311 155.917C306.855 156.601 306.627 156.999 306.627 157.113C306.513 157.227 306.399 157.569 306.285 158.139C306.171 158.594 306.057 159.164 305.943 159.848C305.829 160.417 305.715 161.044 305.602 161.728C305.488 162.297 305.431 162.639 305.431 162.753C305.203 162.981 304.804 163.664 304.234 164.804C303.779 165.943 303.209 167.196 302.525 168.563C301.956 169.931 301.386 171.184 300.816 172.323C300.361 173.463 300.133 174.203 300.133 174.545C299.791 175.115 299.563 175.741 299.449 176.425L299.107 177.792C298.88 178.817 298.538 180.412 298.082 182.577C297.74 184.628 297.398 186.793 297.057 189.071C296.715 191.236 296.43 193.23 296.202 195.053C295.974 196.876 295.86 198.015 295.86 198.471V224.276C296.088 224.504 296.373 225.473 296.715 227.182C297.171 228.777 297.398 230.372 297.398 231.967C297.398 231.511 296.886 234.075 295.86 239.657C296.658 241.366 297.114 243.303 297.228 245.468C297.455 247.519 297.74 249.626 298.082 251.791C298.31 253.5 298.538 255.437 298.766 257.602C299.107 259.652 299.563 261.817 300.133 264.096C300.589 265.919 301.557 268.083 303.038 270.59C304.519 273.096 306 275.489 307.481 277.768C307.937 278.451 308.507 279.306 309.19 280.331C309.988 281.356 311.013 283.122 312.267 285.629C313.406 287.908 314.545 290.186 315.685 292.465C316.938 294.63 318.533 296.225 320.47 297.25C320.925 297.478 321.21 297.649 321.324 297.763C321.438 297.763 321.723 297.877 322.179 298.104C322.748 298.446 323.603 299.073 324.742 299.984C325.995 300.896 327.932 302.662 330.553 305.282C332.034 306.877 333.515 308.415 334.996 309.896C336.591 311.264 337.787 312.175 338.585 312.631C338.699 312.631 338.813 312.745 338.927 312.973C339.041 313.201 339.496 313.485 340.294 313.827C340.294 313.941 340.579 314.112 341.148 314.34C341.718 314.568 342.402 314.853 343.199 315.194C343.997 315.422 344.908 315.821 345.934 316.391C347.301 316.96 348.668 317.587 350.035 318.271C351.516 318.84 352.94 319.41 354.308 319.979C355.675 320.549 356.871 321.062 357.896 321.518C359.036 321.859 359.89 322.03 360.46 322.03H371.056C371.511 322.258 371.853 322.429 372.081 322.543C372.309 322.543 373.049 322.771 374.303 323.227H378.746C382.962 323.227 387.177 322.372 391.393 320.663C395.722 318.954 399.881 316.789 403.868 314.169C407.856 311.435 411.559 308.472 414.977 305.282C418.508 301.978 421.528 298.788 424.034 295.712C425.629 293.775 426.769 292.123 427.452 290.756C428.25 289.389 429.047 287.908 429.845 286.312L432.237 281.356C432.693 280.103 433.149 278.907 433.604 277.768C434.174 276.514 434.687 275.204 435.143 273.837C436.168 270.875 437.307 267.912 438.561 264.95C439.814 261.988 441.238 259.026 442.833 256.063C443.289 255.38 444.656 255.038 446.935 255.038C448.871 255.038 450.182 255.437 450.865 256.234C451.549 257.032 452.46 258.399 453.6 260.336V267.685C453.6 273.039 453.258 278.337 452.574 283.578C452.346 286.312 452.118 288.933 451.891 291.439C451.777 293.946 451.72 296.851 451.72 300.155C451.72 300.725 451.777 302.149 451.891 304.428C452.005 306.592 452.175 308.928 452.403 311.435C452.631 313.827 452.802 316.106 452.916 318.271C453.144 320.321 453.372 321.575 453.6 322.03V324.081C453.6 324.879 453.372 325.847 452.916 326.986C452.574 328.126 452.062 329.265 451.378 330.404C450.808 331.43 450.125 332.341 449.327 333.139C448.53 333.822 447.732 334.164 446.935 334.164C445.34 334.164 444.2 333.651 443.517 332.626C442.947 331.601 442.548 330.461 442.32 329.208C442.092 328.98 441.979 328.752 441.979 328.524C441.979 328.297 441.865 328.012 441.637 327.67C441.637 327.328 441.352 326.645 440.782 325.619C440.326 324.594 439.757 323.511 439.073 322.372C438.504 321.119 437.934 320.036 437.364 319.125C436.795 318.1 436.453 317.416 436.339 317.074C435.655 316.618 434.858 316.391 433.946 316.391C431.668 316.391 429.56 317.131 427.623 318.612C425.8 319.979 424.091 321.404 422.496 322.885C421.471 324.024 420.445 325.106 419.42 326.132C418.508 327.043 417.654 327.67 416.856 328.012C416.515 328.012 416.116 328.126 415.66 328.354C415.204 328.467 414.692 328.581 414.122 328.695C413.666 328.809 413.325 328.866 413.097 328.866C412.299 329.778 411.331 330.461 410.191 330.917C409.166 331.259 408.027 331.658 406.773 332.113C405.52 332.569 404.096 333.025 402.501 333.48C400.906 333.822 399.197 334.278 397.374 334.848C394.526 335.531 391.734 336.386 389 337.411C386.266 338.323 383.702 339.519 381.31 341C378.233 341.228 375.1 341.399 371.91 341.513C368.72 341.741 365.473 341.854 362.169 341.854C359.549 341.854 356.814 341.741 353.966 341.513C351.231 341.399 348.44 341.228 345.592 341C345.364 340.886 344.908 340.715 344.225 340.487C343.541 340.259 342.8 340.032 342.003 339.804C341.205 339.462 340.465 339.234 339.781 339.12C339.098 338.892 338.585 338.721 338.243 338.607C338.471 338.607 338.072 338.55 337.047 338.437C336.135 338.209 335.167 338.095 334.142 338.095C333.002 337.753 332.091 337.525 331.407 337.411C330.724 337.297 330.211 337.126 329.869 336.898C328.844 336.329 328.217 335.987 327.989 335.873C327.875 335.759 327.761 335.702 327.647 335.702C326.508 335.019 325.084 334.506 323.375 334.164C320.527 333.139 317.678 332.056 314.83 330.917C312.096 329.664 309.418 328.297 306.798 326.815C302.81 324.309 299.107 321.404 295.689 318.1C292.271 314.682 289.081 311.207 286.119 307.675C285.777 307.219 284.98 306.194 283.727 304.599C282.473 303.004 281.106 301.352 279.625 299.643C278.144 297.82 276.777 296.111 275.523 294.516C274.27 292.921 273.473 291.952 273.131 291.61C273.017 291.269 272.675 290.585 272.105 289.56C271.536 288.42 270.852 287.167 270.055 285.8C269.371 284.433 268.688 283.122 268.004 281.869C267.434 280.502 266.979 279.534 266.637 278.964C266.409 278.508 266.124 277.882 265.782 277.084C265.44 276.173 265.156 275.204 264.928 274.179C264.472 272.925 264.016 271.786 263.561 270.761C263.219 269.621 262.991 268.767 262.877 268.197C262.421 266.602 261.795 264.381 260.997 261.532C260.313 258.684 259.63 255.893 258.946 253.158C258.263 250.424 257.693 248.031 257.237 245.98C256.782 243.816 256.554 242.676 256.554 242.562C256.326 239.486 256.041 236.296 255.699 232.992C255.471 229.574 255.357 226.042 255.357 222.396C255.357 216.928 255.699 211.003 256.383 204.623Z" fill="black"/>
<rect x="0.396484" y="102.487" width="289" height="443" rx="29" transform="rotate(-20.3471 0.396484 102.487)" fill="#1D1D1D"/>
<path d="M103.552 280.189C103.683 279.895 103.583 278.835 103.252 277.01C102.88 275.079 102.195 272.17 101.197 268.282C100.49 266.113 99.9304 264.009 99.5176 261.972C99.0641 259.828 98.7781 257.802 98.6596 255.896C98.7253 255.749 98.7552 255.189 98.7491 254.215C98.743 253.242 98.7166 252.215 98.6699 251.136C98.6889 249.909 98.6953 248.808 98.6893 247.835C98.6832 246.862 98.6927 246.248 98.7178 245.995C98.6615 245.528 98.549 244.595 98.3803 243.196C98.2773 241.65 98.1539 240.051 98.0103 238.398C97.8666 236.745 97.7104 235.22 97.5416 233.82C97.4387 232.274 97.3794 231.321 97.3638 230.961C97.0669 228.269 97.3632 225.534 98.2527 222.755C99.1014 219.869 99.8641 217.077 100.541 214.379L101.776 210.431C103.887 202.55 106.807 195.031 110.537 187.873C114.372 180.675 118.938 174.113 124.235 168.185C129.532 162.258 135.507 156.987 142.159 152.372C148.77 147.65 155.907 143.825 163.57 140.897C169.317 138.7 174.847 136.892 180.158 135.472C185.47 134.052 190.724 132.959 195.92 132.194C201.182 131.281 206.492 130.654 211.85 130.314C217.209 129.974 222.935 129.798 229.029 129.787L230.945 129.055C232.541 128.445 233.648 127.351 234.265 125.773C234.841 124.09 235.184 122.434 235.294 120.806C235.576 118.991 236.038 117.168 236.68 115.337C237.428 113.465 239.026 112.062 241.474 111.127C242.858 110.598 244.171 110.523 245.413 110.902C246.656 111.281 247.767 111.954 248.746 112.921C249.832 113.848 250.799 114.942 251.647 116.204C252.455 117.359 253.082 118.522 253.529 119.692C253.504 119.946 253.532 120.179 253.614 120.392C253.589 120.646 253.637 120.932 253.759 121.251C253.84 121.464 253.868 121.697 253.843 121.951C253.753 122.351 253.702 122.858 253.693 123.472C253.815 123.791 253.932 124.417 254.045 125.35C254.223 126.136 254.475 126.954 254.8 127.806C255.157 129.377 255.513 130.948 255.87 132.519C256.333 134.05 256.62 135.282 256.733 136.215L258.014 139.567C261.29 145.267 264.34 151.176 267.166 157.292C269.991 163.409 272.562 169.5 274.881 175.566L277.504 182.431C277.256 183.379 276.776 184.356 276.062 185.36C275.348 186.365 274.565 187.03 273.714 187.355C272.437 187.843 271.083 187.812 269.653 187.26C268.182 186.603 266.736 185.692 265.315 184.527C264.001 183.322 262.699 181.99 261.41 180.531C260.227 179.031 259.138 177.618 258.143 176.291C257.27 175.283 256.531 174.467 255.927 173.844C255.389 173.074 254.912 172.464 254.496 172.013C254.308 171.841 253.806 171.484 252.989 170.942C252.279 170.36 251.441 169.765 250.478 169.158C249.62 168.51 248.856 167.948 248.187 167.472C247.476 166.89 247.08 166.492 246.999 166.279C246.558 166.082 245.647 165.454 244.267 164.396C242.887 163.338 241.433 162.247 239.906 161.123C238.338 159.892 236.864 158.748 235.484 157.69C234.104 156.632 233.279 155.91 233.01 155.525C232.209 155.343 231.735 155.22 231.588 155.154C231.441 155.088 231.265 154.789 231.062 154.257C228.968 154.203 227.092 153.762 225.433 152.932C219.596 151.382 213.82 149.991 208.105 148.76C202.496 147.488 196.701 147.324 190.72 148.268L185.771 150.159C185.558 150.24 185.218 150.309 184.752 150.366C184.392 150.381 183.905 150.384 183.292 150.375C183.079 150.456 182.866 150.537 182.653 150.619C182.506 150.553 182.22 150.601 181.794 150.764C181.434 150.78 180.935 150.909 180.296 151.153C179.617 151.291 178.598 151.497 177.24 151.773C173.302 153.277 169.719 155.073 166.492 157.16C163.224 159.141 160.004 161.408 156.833 163.961C156.555 164.19 156.223 164.439 155.838 164.708C155.559 164.936 155.281 165.165 155.002 165.393C154.83 165.581 154.637 165.715 154.424 165.797C153.761 166.294 153.322 166.584 153.11 166.665C153.003 166.706 152.737 166.807 152.311 166.97C151.967 167.346 151.656 167.648 151.377 167.876C151.205 168.064 150.529 168.688 149.348 169.749C148.898 170.165 148.343 171.109 147.686 172.58C146.988 173.944 145.874 176.138 144.346 179.161C144.018 179.897 143.603 180.726 143.102 181.649C142.667 182.426 142.33 182.981 142.092 183.316C141.763 184.051 141.381 184.807 140.946 185.583C140.511 186.36 140.228 186.895 140.096 187.189C139.965 187.483 139.636 188.219 139.11 189.395C138.69 190.531 138.501 191.153 138.541 191.259C138.45 191.66 138.375 192.42 138.315 193.541C138.256 194.661 138.163 195.855 138.038 197.123C137.912 198.391 137.746 199.552 137.539 200.607C137.439 201.621 137.323 202.275 137.192 202.569C137.06 202.863 136.936 203.337 136.82 203.991C136.811 204.605 136.695 205.259 136.473 205.954C136.266 207.009 135.993 208.211 135.655 209.559C135.276 210.802 134.897 212.044 134.518 213.287C134.246 214.489 133.986 215.564 133.738 216.512C133.557 217.314 133.486 217.767 133.527 217.874C133.461 218.021 133.477 218.381 133.573 218.954C133.63 219.42 133.727 219.993 133.864 220.672C133.961 221.245 134.078 221.871 134.216 222.55C134.313 223.123 134.382 223.462 134.422 223.569C134.291 223.863 134.162 224.644 134.037 225.912C134.018 227.139 133.933 228.513 133.783 230.034C133.739 231.514 133.654 232.888 133.528 234.156C133.509 235.383 133.561 236.156 133.683 236.475C133.567 237.129 133.578 237.796 133.715 238.475L133.884 239.874C134.037 240.914 134.287 242.526 134.634 244.71C135.047 246.748 135.501 248.892 135.995 251.143C136.448 253.287 136.894 255.251 137.332 257.035C137.769 258.819 138.07 259.924 138.232 260.35L147.444 284.455C147.738 284.587 148.35 285.39 149.279 286.864C150.274 288.192 151.057 289.6 151.626 291.09C151.463 290.664 151.899 293.242 152.934 298.823C154.289 300.135 155.406 301.781 156.286 303.763C157.23 305.597 158.249 307.464 159.341 309.364C160.164 310.879 161.068 312.607 162.054 314.548C163.105 316.342 164.303 318.201 165.649 320.126C166.725 321.666 168.403 323.343 170.681 325.156C172.959 326.968 175.197 328.674 177.394 330.274C178.063 330.75 178.901 331.345 179.905 332.059C181.016 332.732 182.604 334.016 184.67 335.91C186.547 337.631 188.425 339.353 190.303 341.075C192.246 342.65 194.306 343.57 196.481 343.837C196.988 343.887 197.315 343.945 197.462 344.011C197.568 343.97 197.875 343.975 198.382 344.025C199.036 344.141 200.058 344.421 201.448 344.866C202.944 345.27 205.384 346.228 208.767 347.741C210.72 348.702 212.652 349.61 214.564 350.465C216.542 351.173 217.985 351.597 218.893 351.738C218.999 351.697 219.146 351.763 219.334 351.935C219.522 352.107 220.049 352.211 220.916 352.245C220.957 352.352 221.284 352.41 221.898 352.419C222.511 352.429 223.251 352.451 224.118 352.486C224.945 352.414 225.938 352.461 227.1 352.627C228.58 352.671 230.081 352.768 231.602 352.919C233.189 352.922 234.722 352.946 236.203 352.99C237.683 353.034 238.984 353.086 240.104 353.146C241.291 353.058 242.15 352.913 242.682 352.71L252.58 348.927C253.087 348.978 253.467 349.015 253.721 349.04C253.933 348.959 254.706 348.908 256.04 348.886L260.19 347.3C264.128 345.795 267.761 343.492 271.089 340.391C274.523 337.249 277.635 333.742 280.424 329.871C283.173 325.894 285.575 321.805 287.629 317.605C289.748 313.258 291.43 309.2 292.673 305.432C293.472 303.053 293.946 301.103 294.097 299.582C294.354 298.02 294.57 296.352 294.746 294.577L295.212 289.094C295.19 287.76 295.189 286.48 295.208 285.253C295.292 283.879 295.304 282.472 295.241 281.033C295.142 277.899 295.149 274.726 295.262 271.511C295.375 268.297 295.648 265.021 296.081 261.685C296.262 260.884 297.418 260.076 299.546 259.263C301.355 258.572 302.722 258.476 303.645 258.977C304.568 259.478 305.907 260.43 307.663 261.833L310.286 268.697C312.198 273.699 313.77 278.77 315.002 283.91C315.765 286.545 316.488 289.074 317.169 291.497C317.958 293.879 318.942 296.613 320.121 299.7C320.324 300.232 320.886 301.542 321.806 303.63C322.685 305.611 323.678 307.732 324.786 309.992C325.853 312.146 326.826 314.213 327.705 316.194C328.65 318.029 329.31 319.118 329.686 319.463L330.418 321.378C330.702 322.123 330.835 323.109 330.816 324.336C330.904 325.522 330.831 326.77 330.599 328.078C330.433 329.239 330.12 330.335 329.66 331.364C329.159 332.287 328.536 332.891 327.791 333.176C326.301 333.745 325.054 333.673 324.049 332.959C323.151 332.205 322.372 331.283 321.712 330.194C321.417 330.062 321.23 329.89 321.148 329.677C321.067 329.464 320.859 329.239 320.524 329.001C320.402 328.682 319.892 328.145 318.994 327.39C318.202 326.595 317.283 325.787 316.238 324.967C315.259 324 314.34 323.192 313.483 322.544C312.585 321.79 312.021 321.273 311.793 320.994C310.992 320.813 310.165 320.885 309.314 321.21C307.185 322.023 305.481 323.467 304.2 325.542C302.985 327.47 301.897 329.411 300.936 331.363C300.385 332.794 299.814 334.171 299.222 335.495C298.696 336.671 298.121 337.562 297.498 338.166C297.179 338.288 296.847 338.537 296.503 338.912C296.118 339.181 295.679 339.471 295.188 339.78C294.803 340.049 294.504 340.225 294.291 340.306C293.872 341.442 293.211 342.426 292.309 343.259C291.474 343.944 290.552 344.723 289.544 345.596C288.536 346.469 287.368 347.403 286.041 348.399C284.673 349.287 283.239 350.323 281.739 351.506C279.323 353.161 277.02 354.956 274.832 356.89C272.603 358.717 270.636 360.75 268.929 362.987C266.137 364.298 263.272 365.576 260.332 366.821C257.434 368.173 254.441 369.438 251.355 370.618C248.907 371.553 246.312 372.423 243.57 373.227C240.975 374.096 238.307 374.933 235.565 375.737C235.311 375.712 234.825 375.715 234.105 375.746C233.385 375.777 232.612 375.829 231.785 375.901C230.918 375.866 230.145 375.918 229.466 376.055C228.746 376.086 228.206 376.11 227.846 376.125C228.059 376.044 227.666 376.133 226.668 376.393C225.735 376.505 224.79 376.744 223.832 377.11C222.646 377.198 221.713 377.31 221.034 377.448C220.354 377.586 219.815 377.609 219.414 377.518C218.253 377.352 217.545 377.256 217.292 377.231C217.145 377.166 217.018 377.153 216.912 377.194C215.603 376.962 214.09 376.991 212.372 377.282C209.345 377.341 206.298 377.347 203.23 377.299C200.229 377.104 197.24 376.783 194.263 376.335C189.644 375.417 185.148 374.025 180.776 372.159C176.363 370.186 172.142 368.079 168.114 365.837C167.633 365.533 166.522 364.86 164.781 363.817C163.041 362.775 161.175 361.72 159.181 360.652C157.147 359.478 155.26 358.369 153.52 357.327C151.779 356.284 150.689 355.664 150.247 355.467C150.019 355.188 149.456 354.672 148.558 353.917C147.619 353.056 146.533 352.13 145.3 351.137C144.173 350.104 143.067 349.124 141.981 348.198C140.961 347.124 140.19 346.382 139.667 345.972C139.291 345.627 138.802 345.144 138.198 344.521C137.553 343.791 136.941 342.988 136.362 342.112C135.489 341.104 134.657 340.202 133.865 339.407C133.139 338.465 132.621 337.748 132.312 337.257C131.316 335.929 129.938 334.078 128.176 331.702C126.521 329.285 124.886 326.922 123.272 324.611C121.657 322.301 120.271 320.27 119.113 318.517C117.915 316.657 117.295 315.674 117.254 315.568C115.943 312.776 114.539 309.897 113.04 306.933C111.607 303.821 110.24 300.563 108.938 297.157C106.986 292.049 105.191 286.393 103.552 280.189Z" fill="#F29200"/>
</svg>
